<svg width="36" height="32" viewBox="0 0 36 32" fill="none" xmlns="http://www.w3.org/2000/svg">
<path d="M1.14239 2.31408C0.527258 2.31408 0 1.78682 0 1.14239C0 0.527258 0.527258 0 1.14239 0H4.13019C4.15948 0 4.21806 0 4.24736 0C5.30187 0.0292921 6.23922 0.234337 7.03011 0.732303C7.90887 1.28885 8.5533 2.13832 8.9048 3.39788C8.9048 3.42718 8.9048 3.45647 8.93409 3.48576L9.22701 4.65744H34.8576C35.502 4.65744 36 5.1847 36 5.79984C36 5.91701 35.9707 6.03417 35.9414 6.15134L32.9536 18.1904C32.8365 18.7177 32.3678 19.0692 31.8405 19.0692H13.0936C13.5037 20.5924 13.9138 21.4125 14.4703 21.7933C15.144 22.2327 16.3157 22.262 18.2783 22.2327H18.3076H31.5476C32.192 22.2327 32.69 22.76 32.69 23.3751C32.69 24.0195 32.1627 24.5175 31.5476 24.5175H18.3076C15.8763 24.5468 14.3824 24.4882 13.1814 23.6973C11.9512 22.8771 11.3068 21.4711 10.6623 18.9227L6.73718 4.0716C6.73718 4.04231 6.73718 4.04231 6.70789 4.01302C6.53214 3.36859 6.23922 2.92921 5.82913 2.69487C5.41904 2.43124 4.86249 2.31408 4.21806 2.31408C4.18877 2.31408 4.15948 2.31408 4.13019 2.31408H1.14239ZM28.1204 25.8649C29.6729 25.8649 30.9325 27.1245 30.9325 28.677C30.9325 30.2295 29.6729 31.489 28.1204 31.489C26.5679 31.489 25.3084 30.2295 25.3084 28.677C25.3084 27.1245 26.5679 25.8649 28.1204 25.8649ZM15.7884 25.8649C17.3409 25.8649 18.6005 27.1245 18.6005 28.677C18.6005 30.2295 17.3409 31.489 15.7884 31.489C14.236 31.489 12.9764 30.2295 12.9764 28.677C12.9764 27.1245 14.236 25.8649 15.7884 25.8649ZM9.87144 6.94223L12.4784 16.7551H30.9618L33.393 6.94223H9.87144Z" fill="#827261"/>
</svg>
