<svg width="30" height="22" viewBox="0 0 30 22" fill="none" xmlns="http://www.w3.org/2000/svg">
<path d="M12.8572 6.10205H27.5511C28.9036 6.10205 30 5.00564 30 3.65307C30 2.30049 28.9036 1.20409 27.5511 1.20409H12.8572C11.5046 1.20409 10.4082 2.30049 10.4082 3.65307C10.4082 5.00564 11.5046 6.10205 12.8572 6.10205Z" fill="#827261"/>
<path d="M27.5511 8.55103H12.8572C11.5046 8.55103 10.4082 9.64743 10.4082 11C10.4082 12.3526 11.5046 13.449 12.8572 13.449H27.5511C28.9036 13.449 30 12.3526 30 11C30 9.64743 28.9036 8.55103 27.5511 8.55103Z" fill="#827261"/>
<path d="M27.5511 15.898H12.8572C11.5046 15.898 10.4082 16.9944 10.4082 18.3469C10.4082 19.6995 11.5046 20.7959 12.8572 20.7959H27.5511C28.9036 20.7959 30 19.6995 30 18.3469C30 16.9944 28.9036 15.898 27.5511 15.898Z" fill="#827261"/>
<path d="M3.67347 0.591843H2.44898C1.09641 0.591843 0 1.68825 0 3.04082V4.26531C0 5.61788 1.09641 6.71429 2.44898 6.71429H3.67347C5.02604 6.71429 6.12245 5.61788 6.12245 4.26531V3.04082C6.12245 1.68825 5.02604 0.591843 3.67347 0.591843Z" fill="#827261"/>
<path d="M3.67347 7.93878H2.44898C1.09641 7.93878 0 9.03519 0 10.3878V11.6123C0 12.9648 1.09641 14.0612 2.44898 14.0612H3.67347C5.02604 14.0612 6.12245 12.9648 6.12245 11.6123V10.3878C6.12245 9.03519 5.02604 7.93878 3.67347 7.93878Z" fill="#827261"/>
<path d="M3.67347 15.2857H2.44898C1.09641 15.2857 0 16.3821 0 17.7347V18.9592C0 20.3118 1.09641 21.4082 2.44898 21.4082H3.67347C5.02604 21.4082 6.12245 20.3118 6.12245 18.9592V17.7347C6.12245 16.3821 5.02604 15.2857 3.67347 15.2857Z" fill="#827261"/>
</svg>
