<svg width="61" height="38" viewBox="0 0 61 38" fill="none" xmlns="http://www.w3.org/2000/svg">
<path d="M0.03125 34C0.03125 36.0625 1.85981 37.75 4.09472 37.75H56.9198C59.1547 37.75 60.9833 36.0625 60.9833 34V11.5H0.03125V34ZM6.12645 24.625H30.5073C31.6288 24.625 32.539 25.465 32.539 26.5C32.539 27.535 31.6288 28.375 30.5073 28.375H6.12645C5.00493 28.375 4.09472 27.535 4.09472 26.5C4.09472 25.465 5.00493 24.625 6.12645 24.625ZM6.12645 30.25H16.2851C17.4066 30.25 18.3169 31.09 18.3169 32.125C18.3169 33.16 17.4066 34 16.2851 34H6.12645C5.00493 34 4.09472 33.16 4.09472 32.125C4.09472 31.09 5.00493 30.25 6.12645 30.25ZM60.9833 4V5.875H0.03125V4C0.03125 1.9375 1.85981 0.25 4.09472 0.25H56.9198C59.1547 0.25 60.9833 1.9375 60.9833 4Z" fill="#9D8B77"/>
</svg>
