<svg width="11" height="9" viewBox="0 0 11 9" fill="none" xmlns="http://www.w3.org/2000/svg">
<path d="M3.87482 8.29157C3.80369 8.29169 3.73323 8.27773 3.66752 8.25049C3.6018 8.22326 3.54213 8.18328 3.49193 8.13287L0.24193 4.88288C0.143468 4.7807 0.089041 4.64396 0.0903553 4.50207C0.0916695 4.36018 0.14862 4.22447 0.248958 4.12413C0.349296 4.02379 0.485005 3.96684 0.626898 3.96553C0.768791 3.96421 0.905533 4.01864 1.00771 4.1171L3.87482 6.98395L9.99168 0.867106C10.042 0.816791 10.1017 0.776872 10.1674 0.749629C10.2331 0.722386 10.3035 0.708352 10.3746 0.708328C10.4458 0.708305 10.5162 0.722292 10.5819 0.749492C10.6477 0.776691 10.7074 0.81657 10.7577 0.866852C10.808 0.917134 10.848 0.976834 10.8752 1.04254C10.9024 1.10825 10.9165 1.17868 10.9165 1.24982C10.9165 1.32095 10.9025 1.39139 10.8753 1.45712C10.8481 1.52284 10.8083 1.58257 10.758 1.63289L4.25797 8.13287C4.20774 8.18331 4.14803 8.2233 4.08227 8.25054C4.01651 8.27778 3.946 8.29172 3.87482 8.29157Z" fill="#827261"/>
</svg>
