<svg width="14" height="14" viewBox="0 0 14 14" fill="none" xmlns="http://www.w3.org/2000/svg">
<path d="M11.8125 2.625H10.5V0.875C10.5 0.391781 10.1082 0 9.625 0H4.375C3.89178 0 3.5 0.391781 3.5 0.875V2.625H2.1875C1.70428 2.625 1.3125 3.01678 1.3125 3.5V4.375H12.6875V3.5C12.6875 3.01678 12.2957 2.625 11.8125 2.625ZM5.25 2.625V1.75H8.75V2.625H5.25Z" fill="#9D8B77"/>
<path d="M2.1875 13.1251C2.1875 13.6083 2.57917 14 3.06239 14H10.9377C11.4208 14 11.8125 13.6083 11.8125 13.1252V13.1251V5.25H2.1875V13.1251ZM8.75 7.4375C8.75 7.19589 8.94589 7 9.1875 7C9.42911 7 9.625 7.19589 9.625 7.4375V11.8125C9.625 12.0541 9.42911 12.25 9.1875 12.25C8.94589 12.25 8.75 12.0541 8.75 11.8125V7.4375ZM6.5625 7.4375C6.5625 7.19589 6.75839 7 7 7C7.24161 7 7.4375 7.19589 7.4375 7.4375V11.8125C7.4375 12.0541 7.24161 12.25 7 12.25C6.75839 12.25 6.5625 12.0541 6.5625 11.8125V7.4375ZM4.375 7.4375C4.375 7.19589 4.57089 7 4.8125 7C5.05411 7 5.25 7.19589 5.25 7.4375V11.8125C5.25 12.0541 5.05411 12.25 4.8125 12.25C4.57089 12.25 4.375 12.0541 4.375 11.8125V7.4375Z" fill="#9D8B77"/>
</svg>
