<svg width="60" height="60" viewBox="0 0 60 60" fill="none" xmlns="http://www.w3.org/2000/svg">
<path d="M2.71739 15.8726C2.71739 15.8726 3.20329 3.14919 17.1865 3.56311C31.1697 3.97702 54.727 3.41914 57.0845 17.3483C59.442 31.2776 41.9135 57.4443 27.7684 57.4083C15.5668 57.3723 1.96154 34.7689 2.71739 15.8726Z" fill="#CFF69B"/>
<path d="M39.0883 12.0757H34.3732C29.0823 12.0757 25.645 15.585 25.645 21.0199V25.1411H20.9119C20.498 25.1411 20.1741 25.465 20.1741 25.8789V31.8537C20.1741 32.2676 20.498 32.5916 20.9119 32.5916H25.645V47.6906C25.645 48.1045 25.9689 48.4284 26.3828 48.4284H32.5736C32.9875 48.4284 33.3115 48.1045 33.3115 47.6906V32.6096H38.8543C39.2683 32.6096 39.5922 32.2856 39.5922 31.8717V25.8969C39.5922 25.699 39.5202 25.519 39.3762 25.375C39.2323 25.2311 39.0523 25.1591 38.8543 25.1591H33.3115V21.6678C33.3115 19.9941 33.7074 19.1303 35.9029 19.1303H39.0703C39.4842 19.1303 39.8082 18.8063 39.8082 18.3924V12.8135C39.8261 12.4176 39.5022 12.0757 39.0883 12.0757Z" fill="#9D8B77"/>
</svg>
