<svg width="16" height="16" viewBox="0 0 16 16" fill="none" xmlns="http://www.w3.org/2000/svg">
<path d="M15.9317 0.454155C15.8029 0.159215 15.58 0.0117251 15.2618 0.0115662H0.737808C0.420135 0.0115662 0.196893 0.159215 0.0682817 0.454155C-0.0602503 0.764198 -0.00735106 1.02913 0.227218 1.24844L5.82146 6.84252V12.3572C5.82146 12.5541 5.89335 12.7241 6.03703 12.8681L8.94172 15.7727C9.078 15.9163 9.24814 15.9884 9.45247 15.9884C9.54316 15.9884 9.63767 15.9694 9.73604 15.9316C10.0312 15.8029 10.1788 15.5798 10.1788 15.2621V6.84256L15.7728 1.24848C16.0075 1.02917 16.0603 0.764317 15.9317 0.454155Z" fill="#CFF69B"/>
</svg>
