<svg width="100" height="100" viewBox="0 0 100 100" fill="none" xmlns="http://www.w3.org/2000/svg">
<g clip-path="url(#clip0_210_346)">
<path d="M99.9414 43.478L96.6916 30.9043C96.5375 30.3082 96.0965 29.8282 95.5158 29.6244C94.9352 29.4207 94.2908 29.5196 93.7976 29.8883L83.399 37.6676C83.1054 37.8872 82.8839 38.1889 82.7627 38.5344L77.8738 52.4548C76.5867 51.2684 75.1851 50.2044 73.6873 49.2821L75.4808 33.8418C80.0308 27.7522 81.8859 21.6377 80.9914 15.6602C79.6115 6.44295 72.1755 1.04938 71.8597 0.824187C71.1974 0.352312 70.304 0.368913 69.6597 0.866375C69.0156 1.36364 68.773 2.2236 69.0619 2.98415L69.9275 5.26092C71.3328 8.95877 69.9267 13.1789 66.5847 15.2951C61.2804 18.6539 59.4425 25.3985 62.3095 30.984L63.2322 32.7817L62.5032 45.4372C61.5193 45.3286 60.52 45.271 59.5077 45.271C57.3935 45.271 55.3034 45.5194 53.2733 45.9975L52.9452 44.5223C53.4429 44.1981 53.8722 43.7719 54.2005 43.2559C54.8054 42.3051 55.0038 41.1756 54.7593 40.0758C54.5151 38.9756 53.8567 38.0366 52.9062 37.4317C52.4198 37.1223 51.8866 36.9206 51.3349 36.8288L50.8935 34.842C50.7083 34.0084 50.7501 33.1672 51.0085 32.5344C52.0337 30.0217 51.4423 26.6699 49.6015 24.5643L39.6561 13.1863C39.2118 12.6779 38.5241 12.4527 37.8655 12.5992C37.2059 12.7457 36.6794 13.2408 36.4921 13.8898L32.3026 28.4096C31.5276 31.0965 32.4112 34.3832 34.4044 36.225C34.9063 36.6889 35.3005 37.4331 35.4858 38.2668L35.9274 40.254C35.4665 40.5711 35.069 40.9793 34.7596 41.4653C34.1546 42.4161 33.9561 43.5456 34.2005 44.6454C34.4446 45.7456 35.103 46.6846 36.0538 47.2897C36.5704 47.6184 37.1395 47.8266 37.728 47.9096L39.1805 54.4432C37.9149 55.8761 36.7989 57.4415 35.8567 59.1175C35.355 59.0323 34.8505 58.969 34.3448 58.9216L26.0969 46.1751C25.8307 45.7639 25.4124 45.4751 24.9334 45.3727C24.4551 45.2698 23.9545 45.362 23.5434 45.628L3.70001 58.4714C2.84395 59.0253 2.59903 60.1687 3.15294 61.0247L10.502 72.3829C4.48204 73.8529 0 79.288 0 85.7535C0 93.3437 6.17501 99.5187 13.7653 99.5187H83.8947C91.4849 99.5187 97.66 93.3437 97.66 85.7535C97.66 80.3185 94.4519 75.5505 89.7918 73.3255L99.8957 44.5518C100.017 44.2063 100.033 43.8327 99.9414 43.478ZM93.8058 34.4952L94.2926 36.3788C93.9336 36.3346 93.5779 36.2528 93.231 36.1309C92.884 36.009 92.5551 35.8506 92.2475 35.661L93.8058 34.4952ZM85.384 42.2151C86.3734 42.9044 87.4215 43.4995 88.5119 43.9985L83.1832 59.1743C82.4593 57.8833 81.6336 56.6567 80.7158 55.5067L85.384 42.2151ZM68.5605 18.4152C72.0316 16.2172 74.0539 12.4449 74.156 8.51424C75.5642 10.5197 76.8765 13.1178 77.3388 16.2072C78.0617 21.0383 76.5462 26.0791 72.8374 31.2034L66.2816 30.6346L65.5952 29.2977C63.6062 25.4233 64.881 20.7451 68.5605 18.4152ZM66.6835 37.0834L66.8388 34.3899L71.6505 34.8073L71.339 37.4875L66.6835 37.0834ZM70.9128 41.1571L70.1806 47.461C68.89 46.9063 67.5484 46.4487 66.1642 46.0981L66.471 40.7717L70.9128 41.1571ZM36.9094 33.5118C35.9362 32.6123 35.4606 30.7825 35.8501 29.4328L38.0331 21.8664L39.3427 27.7582C39.5339 28.619 40.297 29.2043 41.1432 29.2043C41.2759 29.2043 41.4106 29.1899 41.5456 29.16C42.5413 28.9387 43.1688 27.9524 42.9473 26.9569L41.6378 21.0654L46.8202 26.9944C47.7446 28.052 48.0892 29.9114 47.5882 31.1389C47.0448 32.4705 46.938 34.0702 47.2876 35.6428L47.6626 37.3305L39.4647 39.1526L39.0895 37.4649C38.7399 35.8918 37.9659 34.4879 36.9094 33.5118ZM38.7868 44.1637C38.7809 44.1649 38.7753 44.1672 38.769 44.1686L38.4327 44.2434C38.2563 44.2821 38.1198 44.2272 38.036 44.1737C37.952 44.1202 37.8442 44.0198 37.8052 43.8438C37.7661 43.6682 37.8214 43.5313 37.8749 43.4475C37.9282 43.3635 38.0288 43.2555 38.2046 43.2163L38.4641 43.1586C38.4641 43.1586 38.4641 43.1586 38.4643 43.1586L50.5269 40.4776C50.5683 40.4684 50.6073 40.4645 50.6442 40.4645C50.7642 40.4645 50.8591 40.5063 50.9233 40.5473C51.0073 40.6004 51.1151 40.7012 51.1542 40.8772C51.1933 41.053 51.138 41.1899 51.0845 41.2735C51.0314 41.3575 50.9306 41.4655 50.7548 41.5047L38.7868 44.1637ZM49.7333 47.0926C48.0911 47.7274 46.5067 48.5198 45.0054 49.4721C44.0593 50.0721 43.1542 50.7282 42.2944 51.435L41.3903 47.3688L49.3985 45.5887L49.7333 47.0926ZM7.25548 60.5685L23.9991 49.7309L29.9811 58.9761C26.4262 59.4024 23.079 60.7515 20.1864 62.9407C17.4676 64.9982 15.2948 67.7423 13.8973 70.8337L7.25548 60.5685ZM93.9672 85.7535C93.9672 91.3074 89.4484 95.8258 83.8949 95.8258H13.7653C8.21154 95.8258 3.69298 91.3074 3.69298 85.7535C3.69298 80.1995 8.21173 75.6812 13.7653 75.6812C14.0092 75.6812 14.2748 75.6929 14.578 75.7171C15.45 75.7865 16.245 75.239 16.4938 74.4046C18.5821 67.4085 25.1432 62.5222 32.4493 62.5222C33.7755 62.5222 35.1063 62.6825 36.4042 62.9987C37.244 63.2028 38.113 62.7981 38.4964 62.0235C42.4809 53.9682 50.5321 48.9643 59.5075 48.9643C72.4275 48.9643 82.9384 59.4755 82.9384 72.3952C82.9384 72.8103 82.9244 73.2577 82.8957 73.7626C82.8381 74.7716 83.6017 75.6394 84.6099 75.7101C89.8568 76.0771 93.9672 80.489 93.9672 85.7535ZM86.6056 71.2529C86.5027 68.7874 86.0705 66.4056 85.3496 64.1509L91.9965 45.2212C93.1588 45.5131 94.3478 45.7008 95.55 45.7813L86.6056 71.2529ZM87.5183 39.1983L89.1689 37.9639C89.9959 38.6838 90.9543 39.2454 92.0076 39.6155C92.9467 39.9452 93.9223 40.1108 94.9002 40.1108C95.0182 40.1108 95.1363 40.1043 95.2543 40.0995L95.7703 42.0965C92.8133 41.8942 89.9519 40.8893 87.5183 39.1983Z" fill="#827261"/>
<path d="M57.3383 74.3906C57.3332 74.3906 57.3281 74.3906 57.3229 74.3906C54.4086 70.241 49.7346 67.7963 44.6088 67.7963C36.0343 67.7963 29.0583 74.7723 29.0583 83.3467C29.0583 84.3664 29.8849 85.1932 30.9048 85.1932C31.9248 85.1932 32.7513 84.3664 32.7513 83.3467C32.7513 76.8084 38.0705 71.4892 44.609 71.4892C48.8041 71.4892 52.6039 73.6383 54.7727 77.2377C55.1387 77.8451 55.8195 78.1891 56.5268 78.123C56.8063 78.0969 57.0793 78.0834 57.3383 78.0834C62.0586 78.0834 65.8989 81.9236 65.8989 86.644C65.8989 87.6637 66.7254 88.4904 67.7453 88.4904C68.7653 88.4904 69.5918 87.6637 69.5918 86.644C69.5918 79.8875 64.0951 74.3906 57.3383 74.3906Z" fill="#827261"/>
</g>
<defs>
<clipPath id="clip0_210_346">
<rect width="100" height="100" fill="white"/>
</clipPath>
</defs>
</svg>
