<svg width="60" height="60" viewBox="0 0 60 60" fill="none" xmlns="http://www.w3.org/2000/svg">
<path d="M42.1208 9.17552C36.5294 9.12958 30.9268 8.91096 25.3239 9.04901C18.8352 9.21016 13.7732 9.60122 9.94209 14.79C8.94108 17.2634 8.43506 20.1512 8.19334 23.1655C8.14741 23.9594 8.10122 24.7762 8.04374 25.616C7.83666 30.7355 8.1818 36.0164 8.06684 40.2039C8.6075 42.9536 9.66598 45.427 11.6449 47.3138C18.2026 53.5608 31.548 51.6165 40.2915 51.2714C44.4908 49.7413 47.988 48.4757 49.8633 43.6783C51.3475 39.9047 51.1057 35.0957 51.2094 31.0463C51.4049 22.7164 51.7732 11.2235 42.1208 9.17552Z" fill="#CFF69B"/>
<path d="M39.5552 12.1434C50.7261 13.5814 47.4475 29.7687 47.1368 37.6148C46.9641 41.9291 46.1935 45.2654 41.7412 46.7609C35.8853 48.7283 27.2567 48.0724 21.2859 47.1982C17.2936 46.6228 14.1644 45.4263 13.0599 41.2847C11.3112 34.7386 11.8059 25.8799 12.5652 19.2072C12.5883 19.0807 12.6227 18.9886 12.6802 18.908C12.7836 8.9223 33.7452 11.3957 39.5552 12.1434Z" fill="#827261"/>
<path d="M44.1915 18.2295C44.2146 15.4798 40.7862 14.6055 38.9453 16.2968C38.4506 16.7569 38.2204 17.4587 38.186 18.218C38.37 19.1959 38.9569 20.1623 39.7162 20.7145C41.4995 21.9685 44.1685 20.3003 44.1915 18.2295Z" fill="#CFF69B"/>
<path d="M39.0949 23.5795C35.1604 17.6201 26.2786 17.0333 21.5043 22.3139C18.2485 25.9148 18.0183 31.9088 20.4689 36.1656C20.6069 36.2115 20.7334 36.2921 20.8486 36.4301C24.8293 40.8709 31.686 42.4816 36.6102 38.455C41.0048 34.8541 42.2932 28.4229 39.0949 23.5795Z" fill="#CFF69B"/>
<path d="M23.4143 31.7478C24.8064 35.6594 29.7534 38.7656 33.6994 36.3497C41.6721 31.4716 32.3074 18.2184 25.7381 24.0971C23.4143 25.4661 22.5054 29.182 23.4143 31.7478Z" fill="#827261"/>
</svg>
