<svg width="100" height="100" viewBox="0 0 100 100" fill="none" xmlns="http://www.w3.org/2000/svg">
<g clip-path="url(#clip0_210_335)">
<path d="M48.083 26.1179C44.7876 26.1179 42.1067 28.7989 42.1067 32.0942C42.1067 35.3895 44.7876 38.0705 48.083 38.0705C51.3781 38.0705 54.059 35.3895 54.059 32.0942C54.059 28.7989 51.3781 26.1179 48.083 26.1179ZM48.083 34.5367C46.7361 34.5367 45.6404 33.441 45.6404 32.0942C45.6404 30.7474 46.7361 29.6517 48.083 29.6517C49.4298 29.6517 50.5252 30.7474 50.5252 32.0942C50.5252 33.441 49.4296 34.5367 48.083 34.5367Z" fill="#827261"/>
<path d="M98.2331 26.9125H92.2194C92.075 21.3344 87.496 16.8404 81.8837 16.8404H76.4959V13.0169C76.4959 12.0411 75.705 11.25 74.729 11.25C73.753 11.25 72.9622 12.0411 72.9622 13.0169V16.8401H19.2641V13.0169C19.2641 12.0411 18.4732 11.25 17.4972 11.25C16.5212 11.25 15.7303 12.0411 15.7303 13.0169V16.8401H10.3426C4.63957 16.8404 0 21.48 0 27.1829V49.4533C0 52.8514 2.76457 55.6159 6.16261 55.6159H9.03649V56.4332H6.45262C5.4766 56.4332 4.68574 57.2242 4.68574 58.2C4.68574 59.1758 5.4766 59.9669 6.45262 59.9669H9.03673V62.123H6.16261C2.76457 62.1227 0 64.8873 0 68.2853V86.9833C0 87.9591 0.790852 88.7502 1.76687 88.7502H90.4594C91.4354 88.7502 92.2262 87.9591 92.2262 86.9833V55.181H98.2331C99.2092 55.181 100 54.3899 100 53.4142V28.6794C100 27.7033 99.2092 26.9125 98.2331 26.9125ZM12.5702 59.9667H15.1543C16.1304 59.9667 16.9212 59.1756 16.9212 58.1998C16.9212 57.224 16.1304 56.4329 15.1543 56.4329H12.5702V55.6157H15.1096C18.5076 55.6157 21.272 52.8511 21.272 49.4531V48.5984C21.272 46.9311 22.6282 45.5751 24.2954 45.5751H53.8736C55.5408 45.5751 56.897 46.9314 56.897 48.5984V59.0992C56.897 60.7662 55.5408 62.1225 53.8736 62.1225H12.5702V59.9667ZM88.6925 85.2162H3.53374V68.2851C3.53374 66.8355 4.71307 65.6562 6.16261 65.6562H53.8736C57.4893 65.6562 60.4308 62.7147 60.4308 59.0992V48.5984C60.4308 44.9826 57.4893 42.0414 53.8736 42.0414H24.2957C20.6799 42.0414 17.7385 44.9829 17.7385 48.5984V49.4531C17.7385 50.9026 16.5591 52.0819 15.1098 52.0819H6.16261C4.71307 52.0819 3.53374 50.9026 3.53374 49.4531V27.1827C3.53374 23.4282 6.58831 20.3739 10.3426 20.3739H81.8837C85.6382 20.3739 88.6925 23.4282 88.6925 27.1827V85.2162ZM96.4663 51.6473H92.2262V30.446H96.4663V51.6473Z" fill="#827261"/>
<path d="M81.9473 40.3163H70.4619C69.4859 40.3163 68.6951 41.1074 68.6951 42.0831C68.6951 43.0589 69.4859 43.85 70.4619 43.85H81.9473C82.9233 43.85 83.7142 43.0589 83.7142 42.0831C83.7142 41.1074 82.9231 40.3163 81.9473 40.3163Z" fill="#827261"/>
<path d="M81.9473 33.9795H70.4619C69.4859 33.9795 68.6951 34.7706 68.6951 35.7464C68.6951 36.7221 69.4859 37.5132 70.4619 37.5132H81.9473C82.9233 37.5132 83.7142 36.7221 83.7142 35.7464C83.7142 34.7706 82.9231 33.9795 81.9473 33.9795Z" fill="#827261"/>
<path d="M81.9473 27.6428H70.4619C69.4859 27.6428 68.6951 28.4339 68.6951 29.4097C68.6951 30.3855 69.4859 31.1766 70.4619 31.1766H81.9473C82.9233 31.1766 83.7142 30.3855 83.7142 29.4097C83.7142 28.4339 82.9231 27.6428 81.9473 27.6428Z" fill="#827261"/>
<path d="M36.9656 26.3482C36.9641 26.3468 36.9625 26.3456 36.9611 26.3442C35.427 24.812 33.388 23.9681 31.2195 23.9681C29.0488 23.9681 27.0082 24.8134 25.4736 26.3482C23.9385 27.8831 23.0933 29.9237 23.0933 32.0943C23.0933 34.2648 23.9385 36.3054 25.4734 37.8402C27.0082 39.375 29.0488 40.2203 31.2195 40.2203C33.3899 40.2203 35.4305 39.375 36.9653 37.8402C36.9656 37.8402 36.9656 37.8402 36.9656 37.8402C40.132 34.6735 40.1337 29.522 36.97 26.3534C36.9684 26.3515 36.9672 26.3499 36.9656 26.3482ZM27.9724 28.8468C28.8398 27.9794 29.9928 27.5019 31.2195 27.5019C31.8294 27.5019 32.4212 27.6204 32.9689 27.8461L26.9714 33.8435C26.746 33.296 26.6275 32.7043 26.6275 32.0941C26.6272 30.8674 27.105 29.7142 27.9724 28.8468ZM34.467 35.3414C33.5993 36.2088 32.4461 36.6863 31.2197 36.6863C30.6095 36.6863 30.018 36.5678 29.4703 36.3424L35.4656 30.347C36.1469 32.0095 35.8147 33.9934 34.467 35.3414Z" fill="#827261"/>
</g>
<defs>
<clipPath id="clip0_210_335">
<rect width="100" height="100" fill="white"/>
</clipPath>
</defs>
</svg>
