<svg width="100" height="100" viewBox="0 0 100 100" fill="none" xmlns="http://www.w3.org/2000/svg">
<path d="M34.7654 60.7612L32.8744 59.6938L40.9928 51.2196L42.8674 52.2971L34.7654 60.7612ZM53.2878 50.4263L34.1405 70.3719L36.0051 71.4256L55.1423 51.5012L53.2878 50.4263ZM97.5194 34.3581L97.6438 34.3719L69.7583 93.4307L0 93.5878L24.9874 40.1202C18.6067 39.1207 15.3453 31.6046 15.2472 23.3454C15.3541 14.7317 18.8606 6.83845 25.8072 6.41223L89.3482 6.4248C89.3746 6.4248 89.3935 6.41223 89.4136 6.41223C96.374 6.83845 99.8692 14.7317 100 23.3517C99.9409 27.4316 99.101 31.3179 97.5194 34.3581ZM89.4136 10.8656C88.2544 10.8392 86.7708 11.7633 85.4431 14.0528C84.1795 16.3059 83.2881 19.6389 83.2881 23.3593C83.2881 27.0733 84.1795 30.4328 85.4431 32.6532C86.7582 34.9616 88.2544 35.8668 89.4136 35.8467C90.5665 35.8731 92.0703 34.9616 93.3917 32.6532C94.6615 30.4328 95.553 27.0733 95.5341 23.3593C95.553 19.6389 94.6615 16.3059 93.3917 14.0528C92.0828 11.7633 90.5665 10.8392 89.4136 10.8656ZM25.8072 35.8329H82.2194C80.0581 32.6393 78.9052 28.1382 78.8398 23.353C78.9052 18.5614 80.0581 14.0465 82.2244 10.8656H25.8072C24.6618 10.8392 23.1606 11.7633 21.8455 14.0528C20.553 16.2983 19.6804 19.6327 19.6804 23.353C19.6804 27.067 20.553 30.4265 21.8455 32.6469C23.1606 34.9477 24.6618 35.8593 25.8072 35.8329ZM89.7782 40.217C89.6475 40.2334 89.5431 40.2862 89.4136 40.2925H29.574L7.97249 89.1081L67.3041 88.9899L89.7782 40.217ZM43.066 72.3182L44.9482 73.3982L57.9046 59.9276L56.03 58.8602L43.066 72.3182Z" fill="#827261"/>
</svg>
