<svg width="375" height="252" viewBox="0 0 375 252" fill="none" xmlns="http://www.w3.org/2000/svg">
<path d="M29.0253 55.1026C-29.7026 40.9333 -85.386 -18.0497 -129.905 5.48102C-176.367 30.0382 -115.329 133.862 -97.5249 162.158C-94.4889 166.983 -92.0368 172.116 -88.8284 176.828C-80.9145 188.451 -59.4599 209.736 -7.4837 212.541C64.5199 216.427 41.5798 183.197 110.689 226.755C179.799 270.312 203.06 245.617 228.342 239.405C246.272 235 363.567 215.665 430.276 204.791C457.901 200.288 479.581 178.69 482.796 150.886C488.837 98.645 494.055 21.413 471.53 24.9083C440.593 29.7091 329.48 15.9732 310.261 13.5312C308.332 13.2861 306.491 12.9586 304.588 12.5587C287.487 8.96474 197.629 -8.78906 165.978 7.90516C130.935 26.3888 87.7533 69.272 29.0253 55.1026Z" fill="#827261"/>
</svg>
