<svg width="200" height="200" fill="none" xmlns="http://www.w3.org/2000/svg"><path d="M36.443 87.83c.123-.734-.372-1.467-1.122-1.594-.634-.105-1.455.306-1.594 1.14a1.4 1.4 0 0 0 1.141 1.578c.75.125 1.45-.375 1.575-1.125ZM31.68 73.632c-.146.36.03.779.406.93.283.115.716-.055.862-.416l1.067-2.633 8.081 3.275a.735.735 0 0 0 .948-.4.726.726 0 0 0-.396-.963l-8.081-3.275 1.064-2.63c.159-.392-.018-.811-.33-.938-.345-.14-.78.03-.938.423l-2.684 6.627ZM48.903 63.403c1.654-2.554.968-6.037-1.613-7.708-2.569-1.663-6.04-.871-7.694 1.681-1.662 2.569-.937 6.019 1.632 7.681 2.581 1.673 6.012.915 7.675-1.654Zm-1.165-.752c-1.258 1.942-3.74 2.45-5.712 1.173-1.971-1.277-2.525-3.75-1.267-5.694 1.269-1.958 3.76-2.479 5.731-1.202 1.973 1.277 2.517 3.765 1.248 5.723ZM47.172 47.6a.758.758 0 0 0-.023 1.03l.025.022 6.608 6.586a.753.753 0 0 0 1.063-.015c.287-.288.262-.742-.025-1.027l-6.154-6.131 4.127-4.144 6.154 6.133c.287.286.73.321 1.03.021a.751.751 0 0 0-.003-1.052l-6.608-6.583a.74.74 0 0 0-1.052 0l-5.142 5.16ZM68.107 44.12c2.548-1.662 3.336-5.124 1.655-7.7-1.671-2.562-5.167-3.247-7.715-1.584-2.56 1.672-3.298 5.12-1.627 7.68 1.681 2.578 5.125 3.276 7.687 1.605Zm-.758-1.16c-1.94 1.265-4.412.721-5.698-1.247-1.283-1.967-.785-4.45 1.154-5.717 1.952-1.275 4.442-.74 5.725 1.23 1.284 1.966.773 4.46-1.18 5.735ZM79.768 31.761c.592-.656.827-1.66.477-2.54a2.898 2.898 0 0 0-3.779-1.618l-3.593 1.438a.724.724 0 0 0-.421.95l3.477 8.693c.15.377.583.55.96.4l3.688-1.475c1.679-.673 2.504-2.477 1.846-4.125a2.729 2.729 0 0 0-2.655-1.723Zm-2.825-2.783c.77-.308 1.66.1 1.957.837.293.738-.06 1.625-.878 1.953l-2.825 1.129-1.11-2.777 2.856-1.142Zm.075 8.47-1.275-3.184 2.95-1.182c.959-.381 1.982-.008 2.346.902.35.88-.114 1.902-1.056 2.277l-2.965 1.188ZM88.002 35.284c.393-.1.627-.49.529-.884l-2.28-9.098c-.097-.393-.483-.61-.877-.512-.393.098-.647.477-.55.869l2.28 9.1a.736.736 0 0 0 .898.525ZM114.703 33.324c.031-.37-.242-.735-.629-.769l-.319-.027.761-8.67a.722.722 0 0 0-.661-.788l-4.596-.404a.81.81 0 0 0-.843.723c-.375 2.902-1.036 5.983-2.559 8.445l-.202-.018c-.369-.031-.762.206-.802.643l-.196 2.221a.737.737 0 0 0 .661.804c.42.038.752-.272.787-.677l.138-1.547 6.935.608-.135 1.55a.734.734 0 1 0 1.464.127l.196-2.22Zm-7.329-1.356c1.371-2.29 2.037-5.25 2.404-7.881l3.231.3-.702 8.014-4.933-.433ZM122.745 36.191c2.914.873 6.066-.76 6.947-3.708.875-2.931-.858-6.042-3.772-6.915-2.932-.875-6.04.79-6.915 3.72-.881 2.947.808 6.028 3.74 6.903Zm.395-1.327c-2.218-.662-3.4-2.904-2.727-5.154.673-2.252 2.892-3.477 5.109-2.813 2.235.67 3.433 2.913 2.76 5.165-.673 2.25-2.906 3.47-5.142 2.802ZM132.241 39.538a.719.719 0 0 0 .987-.28l3.667-6.547.862 4.998c.117.412.427.585.842.468l4.696-1.883-3.665 6.548a.736.736 0 0 0 1.283.719l4.582-8.186c.189-.34.066-.777-.302-.983a.827.827 0 0 0-.557-.08l-5.675 2.249-1.081-6.027a.739.739 0 0 0-.373-.442c-.323-.181-.764-.119-.979.265l-4.581 8.185a.731.731 0 0 0 .294.996ZM144.645 47.407a.72.72 0 0 0 1.021-.121l5.806-7.367a.71.71 0 0 0-.133-1.008c-.319-.25-.771-.221-1.023.098l-5.805 7.368a.734.734 0 0 0 .134 1.03ZM157.091 51.173c.831.302 1.85.14 2.531-.519a2.897 2.897 0 0 0 .069-4.11l-2.69-2.782c-.283-.291-.737-.322-1.04-.029l-6.731 6.507a.74.74 0 0 0-.006 1.041l2.76 2.854c1.257 1.3 3.24 1.382 4.517.148a2.73 2.73 0 0 0 .59-3.11Zm1.508-3.667c.575.596.535 1.575-.035 2.127-.573.552-1.53.56-2.14-.073l-2.115-2.187 2.15-2.08 2.14 2.213Zm-7.813 3.275 2.467-2.385 2.208 2.285c.717.74.759 1.83.053 2.51-.68.659-1.803.615-2.507-.114l-2.221-2.296ZM156.926 60.011c.227.336.679.398 1.029.163l3.39-2.29.623.925-1.738 5.457c-.102.272-.1.516.055.716.316.44 1.029.346 1.264-.179l1.683-5.36 5.046.162c.634 0 1.034-.554.673-1.087-.096-.2-.292-.313-.535-.31l-5.29-.161-.633-.938 3.194-2.158a.706.706 0 0 0 .204-.994.744.744 0 0 0-1.042-.214l-7.731 5.223a.755.755 0 0 0-.192 1.045ZM175.396 73.256c.233-.1.381-.31.431-.536.08-.329-.081-.702-.518-.862l-9.75-2.65 6.862-2.952c.358-.155.519-.592.358-.965a.716.716 0 0 0-.937-.385l-8.619 3.704a.715.715 0 0 0-.431.535.706.706 0 0 0 .529.804l9.823 2.692-6.908 2.973a.72.72 0 0 0-.382.954c.161.373.584.54.957.38l8.585-3.692ZM171.478 87.712c.121.733.827 1.267 1.577 1.142.633-.106 1.279-.763 1.139-1.596a1.398 1.398 0 0 0-1.593-1.12 1.36 1.36 0 0 0-1.123 1.574Z" fill="#918773"/><path d="M20.552 141.044c1.183-.237 2.585-.362 4.209-.375 1.62-.017 3.052.171 4.291.558.31.09.636.215.975.375.338.163.592.398.758.709.177.346.267.896.267 1.65 0 .756-.323 1.112-.966 1.066a1.678 1.678 0 0 1-.542-.108 16.16 16.16 0 0 0-.517-.183 18.473 18.473 0 0 0-3.633-.75 23.11 23.11 0 0 0-3.558-.117c-.134.863-.207 2.667-.217 5.417-.006 2.75.133 4.698.416 5.841.044.184.094.38.15.584.055.2.084.398.084.591-.017.363-.215.607-.592.734-.373.129-.8.189-1.283.183-.483-.01-.838-.06-1.058-.15a3.776 3.776 0 0 1-.617-.317 1.757 1.757 0 0 1-.75-.883 7.346 7.346 0 0 1-.342-1.125c-.162-.694-.264-1.571-.308-2.633a37.392 37.392 0 0 1 .008-3.275c.054-1.121.154-2.2.3-3.234.15-1.033.33-1.866.542-2.5.183-.56.387-1.004.616-1.333a1.41 1.41 0 0 1 .684-.525c.17-.044.35-.079.533-.108.184-.027.367-.059.55-.092ZM35.05 144.344c.071-.377.12-.596.142-.658.088-.327.283-.579.584-.759.116-.066.358-.183.724-.35a10.88 10.88 0 0 1 2.759-.808 11.958 11.958 0 0 1 3.008-.117c1.05.09 2.01.323 2.883.7a7.01 7.01 0 0 1 2.376 1.675c.304.334.583.717.833 1.15.243.49.419.938.525 1.342.12.496.158.963.108 1.4-.116 1.083-.783 2.038-2 2.858-1.212.823-2.237 1.34-3.075 1.55-.912.23-2.02.321-3.325.275a.726.726 0 0 0-.225.034 1.356 1.356 0 0 0-.233.075c-.09.046-.18.098-.267.158-.196.15-.348.4-.458.75-.1.317-.167.688-.2 1.108a20.238 20.238 0 0 0-.017 1.684c.01.156.019.291.025.408.01.123.008.231-.008.325a.382.382 0 0 1-.134.2.365.365 0 0 1-.225.083c-.123.017-.229.025-.316.025-.35 0-.733-.029-1.15-.083a2.243 2.243 0 0 1-1.042-.408.724.724 0 0 1-.225-.209c-.123-.15-.246-.458-.366-.925-.107-.36-.213-.833-.317-1.416a15.884 15.884 0 0 1-.267-1.459c-.09-.537-.137-.877-.142-1.016v-.134a.31.31 0 0 1-.024-.075v-.058a.414.414 0 0 0-.017-.133.204.204 0 0 0-.009-.05.195.195 0 0 1-.008-.067c-.023-.271-.048-.55-.075-.833-.029-.288-.046-.577-.05-.867a26.041 26.041 0 0 1-.083-1.808c0-.721.02-1.329.066-1.825.044-.677.12-1.259.225-1.742Zm8.776.9c-.917-.387-2.065-.437-3.442-.15l-.342.133c-.329.157-.581.413-.758.767-.13.29-.19.74-.184 1.35.01.606.094 1.038.25 1.292.117.156.227.273.334.35.3.279.896.406 1.791.383a8.63 8.63 0 0 0 1.5-.1 2.6 2.6 0 0 0 1.367-.633c.221-.221.394-.463.517-.725.12-.277.183-.569.183-.875-.017-.667-.325-1.211-.925-1.634a1.237 1.237 0 0 0-.291-.158ZM58.4 156.319c-.65.579-1.207.9-1.674.967-.463.066-.831.039-1.108-.084-.25-.1-.463-.287-.634-.566-.24-.384-.433-.869-.583-1.459-.196-.683-.363-1.577-.5-2.683a49.765 49.765 0 0 1-.292-3.45c-.062-1.2-.081-2.36-.058-3.483.027-1.121.112-2.046.258-2.775.06-.371.163-.761.309-1.167.143-.41.375-.721.691-.933.344-.244.938-.4 1.784-.467.843-.067 1.283.283 1.316 1.05.01.213-.012.423-.066.633-.05.213-.092.417-.125.617-.28 1.35-.438 2.85-.475 4.5-.04 1.65.016 3.283.166 4.9 1.627-2.017 2.83-3.704 3.609-5.067a41.525 41.525 0 0 0 2.008-3.95c.56-1.27.985-2.004 1.275-2.2.177-.127.477-.237.9-.333.42-.094.852-.137 1.292-.133.437 0 .829.075 1.175.225.343.15.518.414.525.791 0 .196-.025.398-.075.609-.046.212-.088.423-.125.633-.396 1.9-.55 4.075-.467 6.525.083 2.446.325 4.683.725 6.717.11.589.052.989-.175 1.2-.23.212-.558.348-.992.408-.29.046-.506.065-.65.058-.146-.004-.364-.062-.658-.175-.233-.104-.44-.293-.617-.566-.223-.377-.42-.863-.591-1.459a16.65 16.65 0 0 1-.367-1.75c-.113-.687-.123-2.61-.033-5.766-1.93 3.696-3.421 6.166-4.475 7.416-.213.23-.642.634-1.292 1.217ZM74.043 142.286l.008-.017.034-.008.008-.017.042-.042.025-.008h.016l.009-.017.016-.016.025-.009v-.016l.025-.009h.017l.025-.016v-.009l.025-.016.017-.017h.008l.033-.008.009-.017.025-.008v-.017l.025-.017h.016l.017-.008.008-.017.025-.008.017-.017h.017l.008-.008.025-.017.025-.025.033-.016h.025l.009-.009.033-.016.008-.017.017-.008h.025l.008-.017.017-.008h.017l.025-.017.025-.025h.025l.025-.025h.025l.016-.017.017-.008h.008l.025-.017h.017l.017-.016.025-.009.008-.016.025-.009h.033l.025-.016v-.009l.025-.016h.017l.025-.017h.008l.017-.008h.025l.067-.059.075-.025.083-.033.075-.033.067-.025.083-.042.075-.025.067-.033.091-.034.067-.025.092-.025.066-.041.084-.025.075-.025.066-.025.084-.025.091-.034.067-.025.075-.025.083-.008.075-.042.067-.016.092-.025.083-.025.067-.017.075-.025.091-.025.067-.017.083-.008.075-.025.084-.017.075-.016.083-.025.075-.009.083-.016.075-.009.084-.016.066-.025h.092l.075-.017.067-.008.083-.017.092-.017h.066l.075-.008h.092l.067-.017.083-.008h.075l.092-.017h.066l.084-.016h1.025l.083.016h.067l.091.017h.075l.067.008.083.017h.075l.084.008h.075l.083.017.075.017.067.025h.083l.092.008.066.017.075.025.084.016.066.009.075.016.084.025.091.017.067.008.075.025.083.017.067.025.075.025.083.017.075.025.067.025.075.025.083.033.084.025.058.033.083.017.075.042.084.008.05.042.083.025.075.041.083.025.067.042.075.025.067.025.083.042.067.041.075.042.066.033.075.025.084.059.066.041.067.025.075.05.083.042.067.042.067.05.066.041.075.034.067.058.083.033.059.059.066.05.067.041.083.05h.009l.016.017v.008l.025.017h.017l.008.017h.017v.008l.008.017.017.008.017.017h.025l.008.016.017.009.041.041h.009l.016.009.009.016.016.017.017.008h.008l.067.067h.017v.017l.025.008.008.017h.017l.016.008.009.017.041.041v.009h.025l.017.016.008.017.017.008v.017h.008l.017.008.025.025v.017l.017.017h.025l.016.008.009.017v.008l.016.017h.009l.025.025.016.025.042.016.008.042.034.008.033.025.017.034.025.025.016.025.034.008.033.033.008.034.025.016.017.025.042.025.025.025.008.034.033.025.009.025.025.025.033.025.008.016.025.042.025.008.017.042.05.05.017.025.025.033.016.025.05.05.017.025.008.042.025.017.017.033.025.033.025.025.017.025.008.025.033.042.025.008v.042l.025.025.025.033v.025l.025.034.017.016.025.042v.025l.025.042.025.008v.042l.033.025.009.041.025.017v.033l.016.025.025.042.017.025v.033l.025.025.008.034.034.066.008.034.025.05.017.041.008.025.017.042.016.025.009.025.016.042v.025l.009.041.016.025.017.034.008.033v.033l.017.034.008.033.017.025v.033l.008.034.017.033v.033l.017.025v.042l.008.025.017.042v.025l.008.041v.067l.017.025v.042l.016.041v.067l.009.025v.042l.016.025v.075l.009.025v.666l-.009.034v.066l-.016.042v.025l-.009.042v.05l-.016.025v.058l-.017.033v.084l-.008.025v.025l-.017.025v.041l-.008.017-.017.025v.05l-.017.025v.033l-.008.025-.017.009v.041l-.008.017-.017.025v.05l-.008.025-.017.017-.016.025-.009.025v.041l-.016.025-.009.017-.033.05-.008.017v.025l-.017.016-.008.025-.017.025-.008.009-.017.033-.017.025-.025.025-.008.025v.017l-.033.025-.025.025v.025l-.025.016-.009.025-.016.017-.017.008-.008.025-.017.017-.025.008v.034l-.017.008-.025.017-.008.008-.017.033h-.008l-.033.025-.009.009v.025h-.025l-.016.033-.025.008-.017.025h-.008l-.025.017-.017.025-.017.017h-.008l-.025.025-.017.008-.016.017-.025.016-.05.05h-.017l-.008.017-.025.008-.034.025v.017h-.025l-.025.025-.008.017-.017.008h-.025l-.016.025-.009.017-.033.016-.008.009-.025.016-.034.009-.008.016-.025.009-.017.016-.008.017-.033.008-.025.025h-.009l-.033.017-.025.017-.008.025h-.025l-.034.025-.008.008-.025.017-.017.016-.025.009-.025.016-.016.025h-.025l-.025.017-.017.025-.05.025-.017.017-.033.025-.017.008h-.016l-.025.017-.042.041-.025.009h-.033l-.034.016-.008.009h-.025v.016l.008.017h.017l.008.008v.017l.017.008.042.042v.017l.033.033.1.125.033.05.025.042.042.05.025.041.042.05.025.042.041.05.05.083.034.067.025.033.025.059.025.033.016.058.067.1.008.059.025.05.017.05.025.041.025.059.017.05.008.066.033.05.009.059.016.05.009.05.016.058.017.05.008.008v.084h.017v.066h.008v.067h.017v.05l.008.025v.183l.017.042v.217l.017.025v.05l-.017.041v.2l-.017.034v.15l-.008.05v.041l-.017.025v.05l-.008.034v.033l-.017.042v.041l-.008.042-.017.033v.042l-.016.042-.009.041-.016.025v.05l-.009.025-.016.025-.017.059-.008.025v.041l-.017.034-.025.041-.017.042-.008.025v.042l-.025.041-.017.034-.008.041-.017.025-.016.042-.025.042-.025.075-.017.025-.025.033v.033l-.025.025-.025.059-.017.025-.008.041-.025.025-.017.025-.016.05-.05.067-.009.025-.033.042-.008.025-.042.083-.025.025-.017.042-.025.025-.025.041-.016.025-.025.042-.009.025-.033.025-.033.042-.017.025-.025.041-.017.009-.025.041-.025.025-.025.042-.025.025-.016.042-.075.075-.034.041-.025.025-.025.042-.025.017-.05.066-.058.059-.025.033-.025.025-.025.042-.025.008-.033.042-.075.075-.042.033-.008.025-.042.025-.017.042-.033.008-.033.042-.025.016-.025.034-.042.016-.008.042-.042.008-.025.042-.025.025-.033.017-.034.033-.033.017-.05.05-.025.033-.083.05-.034.042-.125.1-.033.033-.058.025-.034.033-.041.034-.05.025-.042.041-.083.05-.05.025-.025.042-.059.025-.033.025-.042.025-.05.025-.033.033-.058.025-.034.025-.05.025-.041.042-.05.008-.042.034-.042.025-.033.025-.067.025-.083.05-.033.016-.059.025-.05.025-.041.017-.042.025-.05.017-.05.025-.042.025-.041.016-.05.025-.059.025-.033.017-.058.025-.034.025h-.058l-.05.025-.042.025-.05.017-.041.008-.05.033-.059.009-.033.016-.058.009-.034.025-.058.016-.05.017-.05.008-.042.025h-.05l-.041.017-.067.025-.042.017-.05.008h-.041l-.05.017-.059.025-.05.016h-.05l-.041.009-.05.016-.059.009-.1.033h-.058l-.042.008-.05.017h-.041l-.05.008-.067.017h-.092l-.05.008-.058.017h-.033l-.059.017-.066.008h-.034l-.058.017h-.142l-.066.008h-.109l-.033.017h-1.142l-.1-.017h-.108l-.108-.008h-.1l-.109-.017-.108-.008-.117-.017-.091-.025h-.109l-.1-.025-.108-.017-.108-.008-.1-.033-.1-.025-.117-.009-.092-.033-.108-.025-.1-.025-.183-.05-.109-.042h-.05l-.016-.016h-.017l-.008-.009h-.025v-.016h-.025l-.017-.009h-.025v-.016h-.058l-.009-.009h-.016l-.025-.016h-.009l-.016-.017-.017-.008h-.025l-.008-.017h-.034l-.025-.008-.025-.017h-.016l-.009-.017-.016-.008h-.025l-.042-.017-.05-.033-.05-.017-.067-.025-.058-.025-.05-.033-.042-.033-.05-.017-.05-.042-.041-.025-.067-.041-.042-.025-.05-.025-.041-.042-.042-.025-.05-.042-.05-.033-.042-.042-.041-.025-.05-.041-.042-.042-.042-.033-.033-.042-.042-.058-.041-.034-.042-.041-.033-.042-.025-.05-.042-.05-.025-.042-.058-.058-.034-.067-.016-.025-.017-.008v-.017l-.008-.025-.025-.025v-.025l-.017-.016v-.017l-.017-.025-.025-.025-.008-.025-.017-.025v-.017l-.016-.008v-.033l-.009-.009-.016-.025-.009-.016v-.042l-.016-.025-.025-.025v-.025l-.017-.025-.008-.017v-.041l-.017-.025v-.009l-.008-.033v-.008l-.034-.05v-.017l-.008-.025v-.083l-.017-.025v-.025l-.008-.017v-.067l-.017-.025v-.075l-.008-.025v-.175l.008-.041v-.05l.017-.025v-.042l.008-.025v-.042l.017-.025v-.041l.008-.042v-.008l.017-.025.017-.034.008-.008.017-.025v-.042l.008-.025.017-.016.016-.025.009-.025.016-.017.009-.025.016-.025h.009l.016-.042.017-.008.025-.017.008-.025h.017v-.025h.017v-.016h.008v-.009h.017v-.016h.008v-.017l.017-.008.158-.134.142-.116.15-.109.133-.108.142-.075.141-.083.134-.075.133-.05.267-.084.133-.016.133-.025h.117l.117.016.116.009.125.033.1.033.092.042.108.05.075.058.1.067.059.067.083.075.067.066.05.092.058.083.05.075.042.092.033.083.042.092.016.092.025.075.009.041v.025l.016.025h.017l.008.034.025.008.034.025h.025l.033.033.058.009.05.016h.059l.075.009h.066l.075.016h.259l.091-.016.075-.009h.2l.092-.016.092-.009.091-.033h.109l.075-.008.108-.017.075-.008.108-.017.084-.017h.075l.058-.008h.033l.059-.017h.033l.042-.008h.041l.05-.017.042-.008h.092l.083-.033.033-.009.059-.016h.033l.042-.009.083-.033.033-.008.042-.017h.05l.033-.008.034-.017.058-.008.025-.017.042-.017.05-.008.025-.017.041-.025h.042l.033-.016.042-.025.067-.009.066-.041.05-.025.067-.042.067-.017.066-.033.067-.042.05-.041.067-.025.066-.042.059-.033.116-.084.05-.05.067-.025.05-.041.108-.109.05-.041.059-.034.033-.058.042-.05.058-.05.033-.058.042-.034.042-.058.05-.05.025-.05.041-.067.025-.058.042-.067.025-.05.025-.083.042-.092.025-.075.025-.083.033-.092v-.075l.008-.083v-.158l-.008-.075v-.084l-.017-.066-.025-.075-.016-.084-.025-.066-.042-.075-.025-.067-.042-.067-.05-.075-.041-.066-.1-.134-.059-.066-.066-.05-.192-.192-.067-.05-.083-.067-.092-.041-.075-.05-.083-.042-.042-.025-.025-.008-.025-.017-.041-.017-.025-.008-.042-.025h-.025l-.025-.033-.042-.009-.033-.016-.033-.009-.034-.016-.033-.009-.033-.016-.042-.017h-.025l-.042-.008-.041-.017-.025-.008-.042-.034h-.075l-.042-.008-.025-.017-.05-.008-.033-.017h-.075l-.042-.008-.041-.017-.034-.016h-.041l-.042-.009-.042-.016h-.125l-.058-.009h-.092l-.041-.016H79.7l-.033.016h-.083l-.042.009h-.167l-.066.016h-.067l-.092-.016-.083-.009-.05-.033-.075-.008-.058-.042-.067-.025-.05-.05-.05-.042-.067-.041-.041-.042-.042-.067-.042-.033-.05-.058-.025-.05-.083-.134-.008-.05-.025-.083-.025-.067-.017-.066v-.092l.017-.075.033-.092.025-.083.058-.075.067-.067.092-.066.066-.042.1-.05.084-.017.091-.025.05-.008h.042l.05-.017h.058l.034-.016h.058l.042-.009.05-.016.05-.009h.058l.033-.016h.059l.05-.017.05-.008.058-.017.05-.008h.042l.05-.017.041-.008.067-.017.042-.017.05-.008.041-.017.1-.025.042-.016h.042l.041-.025.034-.009.041-.016.042-.009.042-.016.025-.017.05-.025h.025l.041-.025.042-.017.025-.025.042-.008.033-.017.033-.025h.034l.025-.025.041-.025.025-.016.059-.017.025-.025.025-.008.041-.017.05-.05.025-.017.042-.025.025-.016.042-.025.016-.025.034-.017.033-.008.05-.05.042-.017.025-.025.008-.017.042-.041.016-.025.034-.009.016-.025.025-.016.025-.025.034-.025.025-.017.008-.025.025-.025.033-.025.009-.033.025-.009.033-.041.008-.017.05-.05.017-.008.025-.042.017-.017.008-.025.017-.025.025-.025.016-.025.009-.016.025-.042.016-.025v-.017l.025-.033.017-.017.008-.025.017-.025v-.025l.05-.091.025-.084.042-.091.016-.084.025-.075.017-.091v-.309l-.017-.075-.016-.083-.025-.075-.009-.067-.033-.083-.025-.058-.033-.084-.084-.133-.05-.067-.058-.066-.05-.067-.05-.058-.133-.134-.067-.058-.067-.067-.066-.05-.075-.05-.092-.058-.067-.033-.091-.059-.034-.008-.033-.025-.067-.033-.033-.009-.033-.016-.025-.009-.042-.016-.025-.009-.042-.016-.025-.025-.025-.017h-.041l-.042-.008-.042-.017-.025-.017-.041-.008-.034-.017-.033-.008-.033-.017-.042-.016h-.025l-.058-.009h-.025l-.034-.016-.041-.009-.042-.016-.042-.009h-.075l-.041-.016h-.042l-.075-.025-.083-.017-.075-.008H79.6l-.083-.017h-.092l-.066-.017h-.325l-.084.017h-.166l-.067.017h-.092l-.083.008-.075.017-.083.008-.092.017-.067.016-.075.009-.1.016-.058.025-.083.009-.092.033-.067.025-.083.008-.075.042-.083.017-.059.025-.041.016-.025.009-.042.016-.025.009-.042.016-.025.009-.025.016-.041.017-.025.025-.042.008h-.025l-.042.034-.025.008-.041.017-.025.008-.025.025-.025.017-.042.016-.025.009-.025.025-.083.041-.042.025-.008.017-.042.008-.025.034-.025.008-.033.017-.05.05h-.025l-.042.025-.025.025-.025.016-.025.025-.042.025-.025.017-.041.025-.017.025-.05.025-.042.033-.033.034-.033.016-.025.017-.05.05-.025.008-.025.034v.008l-.017.017-.017.008-.008.017-.017.025v.016l-.008.009v.016l-.017.009v.016l-.025.117-.016.092-.034.091-.016.109-.042.083-.025.092-.025.075-.025.083-.058.075-.034.083-.041.05-.05.067-.059.067-.066.05-.05.058-.067.05-.075.042-.067.033-.091.033-.067.025h-.083l-.075.009-.084.016h-.075l-.083.017-.075-.017h-.175l-.083-.016-.092-.009h-.092l-.1-.016h-.066l-.017-.009h-.042l-.1-.033-.058-.008-.033-.017-.042-.025-.05-.008-.058-.017-.042-.025-.033-.025-.059-.017-.025-.041-.041-.009-.05-.041-.025-.017-.084-.067-.025-.033-.033-.025-.067-.083-.033-.025-.025-.05-.05-.067-.017-.042-.05-.083-.016-.05-.025-.042-.009-.041-.016-.034-.009-.058-.016-.025v-.025l-.017-.025v-.017l-.008-.033-.017-.017v-.116l-.008-.042v-.067l-.017-.025v-.291l.017-.025v-.092l.008-.042v-.116l.017-.017v-.025l.008-.025v-.025l.017-.025v-.058l.016-.009v-.033l.009-.025v-.033l.016-.034v-.025l.009-.025v-.016l.016-.025.009-.025v-.042l.016-.025.017-.008v-.042h.008l.017-.025v-.033l.008-.025v-.025l.017-.009.017-.016v-.042l.025-.025v-.025l.008-.017.017-.025v-.025l.008-.016.017-.009.016-.025v-.016l.009-.025.016-.025.009-.017.016-.008v-.034l.017-.025h.008l.017-.025.008-.025h.017v-.025l.008-.025v-.016l.017-.017.017-.025.008-.008h.017v-.017l.008-.017v-.008h.017v-.025h.025v-.042h.016v-.016h.009l.016-.009.009-.016.016-.025v-.017l.017-.008.008-.017.017-.008.008-.017.017-.008.017-.034.05-.05.008-.025h.017l.016-.025.009-.016.016-.009.009-.016.016-.017.017-.008.008-.025h.017l.008-.017.017-.025.008-.017.017-.008.017-.017.025-.008v-.017l.008-.016.033-.009.009-.016v-.009l.025-.016.041-.042.017-.008.025-.017.008-.008v-.017l.034-.017.05-.05.025-.016.016-.009.009-.016.016-.009.009-.016.033-.009v-.016h.025l.008-.017.017-.008ZM92.446 143.286c.288-.367.544-.634.767-.8.227-.171.546-.388.958-.65.45-.161.902-.054 1.358.316.66.54 1.217 1.307 1.667 2.3.45.996.977 1.79 1.583 2.384.194.206.4.246.617.116.22-.127.41-.266.567-.416.444-.417.875-.996 1.291-1.742.417-.75.769-1.387 1.059-1.917.177-.327.371-.562.583-.708.211-.144.525-.142.942.008.383.163.704.365.966.609.267.239.528.521.784.841.283.363.354.842.216 1.442a8.168 8.168 0 0 1-.966 2.275c-.456.746-.906 1.44-1.35 2.083-.44.657-.909 1.29-1.409 1.9-.495.607-1 1.209-1.516 1.809-.467.529-.942 1.056-1.425 1.583-.48.529-.998 1.004-1.559 1.425-.6.45-1.15.74-1.65.867-.39.1-.841.039-1.358-.184-.512-.227-.87-.468-1.075-.725-.2-.26-.406-.535-.617-.825-.206-.293-.198-.57.025-.833.178-.21.436-.425.775-.642a4.38 4.38 0 0 0 .875-.708c.21-.221.42-.404.625-.55.21-.144.492-.458.842-.942.683-.754.669-1.529-.042-2.325a16.87 16.87 0 0 0-1.2-1.441 52.328 52.328 0 0 1-1.225-1.392 17.309 17.309 0 0 1-.658-.8 4.584 4.584 0 0 1-.542-.875c-.15-.277-.229-.521-.233-.733-.006-.217.102-.467.325-.75ZM123.801 142.877c.843 1.434 2.05 3.155 3.616 5.159 1.527-2.144 2.575-3.984 3.142-5.517.217-.571.496-.879.842-.925.343-.044.833.106 1.466.45.638.346.875.879.709 1.6.01.456-.067.99-.234 1.6-.179.679-.498 1.515-.958 2.508-.456.996-1.19 2.188-2.2 3.575a22.69 22.69 0 0 0 2.992 2.309c.187.123.352.258.491.408.254.3.286.638.092 1.008-.19.367-.367.63-.533.784-.163.15-.409.329-.742.533-.333.2-.617.321-.85.358a1.91 1.91 0 0 1-1.225-.175 7.411 7.411 0 0 1-1.092-.65c-.406-.287-1.071-.862-1.991-1.725-.873.88-1.43 1.438-1.667 1.675a8.001 8.001 0 0 1-.975.825c-.363.263-.75.392-1.167.392-.233 0-.437-.052-.608-.158a10.95 10.95 0 0 1-.65-.45 4.095 4.095 0 0 1-.767-.792c-.25-.327-.275-.658-.075-.992.104-.177.242-.341.409-.491.17-.154.333-.309.483-.459a21.71 21.71 0 0 0 2.058-2.358 37.658 37.658 0 0 1-2.091-2.717c-.623-.9-1.088-1.666-1.392-2.3a16.725 16.725 0 0 1-.308-.741 3.625 3.625 0 0 1-.2-.784c-.046-.337 0-.635.133-.891.167-.3.329-.559.492-.775.166-.221.393-.427.683-.617.404-.26.779-.402 1.125-.425.35-.021.679.231.992.758ZM148.433 153.269c-.767.246-1.687.44-2.758.583-1.067.146-1.925.2-2.575.167-.173.783-.3 1.498-.384 2.142-.089.606-.3.964-.633 1.075-.329.106-.733.116-1.217.033a3.406 3.406 0 0 1-.925-.325 5.315 5.315 0 0 1-.833-.567c-.217-.183-.367-.441-.45-.775a3.488 3.488 0 0 1-.117-.791c-.006-.284 0-.552.017-.809.033-.71.175-1.618.425-2.725a42.49 42.49 0 0 1 .925-3.4c.371-1.16.779-2.27 1.225-3.333.444-1.067.877-1.925 1.3-2.575.204-.333.458-.667.758-1a2.012 2.012 0 0 1 1.084-.642c.41-.077.954-.062 1.633.042.677.106 1.183.3 1.517.583.587.317 1.202 1.034 1.841 2.15a29.915 29.915 0 0 1 1.767 3.667 43.054 43.054 0 0 1 1.392 3.908c.387 1.28.627 2.238.716 2.875.088.64.103 1.173.042 1.6-.062.363-.196.632-.4.809a4.11 4.11 0 0 1-.783.6 3.433 3.433 0 0 1-.892.358c-.473.133-.879.158-1.217.075-.339-.083-.572-.425-.7-1.025-.2-.8-.454-1.7-.758-2.7Zm-5.192-1.65c1.521.023 3.111-.167 4.767-.567a47.671 47.671 0 0 0-2.592-5.733 49.208 49.208 0 0 0-2.175 6.3ZM157.38 143.144c.154-.177.45-.235.883-.175.588.073 1.204.108 1.85.108 1.344 0 2.677-.127 4-.383 1.327-.254 2.646-.517 3.959-.783.437-.084.87-.202 1.3-.359.427-.154.86-.262 1.3-.325.5-.06.875.084 1.125.434.277.416.462.9.558 1.45.1.55.052 1.046-.142 1.483-.133.263-.358.471-.675.625-.316.156-.6.288-.85.392-.339.139-.758.325-1.258.558-.5.233-.865.5-1.092.8-.239.317-.308.763-.208 1.333.1.573.221 1.417.367 2.534.077.812.183 1.664.316 2.558.138.89.194 1.738.167 2.542-.006.429-.148.739-.425.933-.379.273-.69.44-.933.5-.24.054-.584.083-1.034.083-.189 0-.398-.025-.625-.075a.602.602 0 0 1-.45-.375 8.79 8.79 0 0 1-.35-.925c-.273-.877-.489-1.985-.65-3.325-.156-1.343-.341-2.466-.558-3.366-.1-.438-.248-.911-.442-1.417-.112-.277-.473-.458-1.083-.542a90.364 90.364 0 0 0-1.267-.166 34.778 34.778 0 0 0-1.441-.075 3.525 3.525 0 0 1-1.367-.325c-.367-.167-.598-.384-.692-.65a9.515 9.515 0 0 1-.275-.934c-.156-1.25-.158-1.96-.008-2.133ZM176.535 143.286c.288-.367.544-.634.767-.8.227-.171.546-.388.958-.65.45-.161.902-.054 1.359.316.66.54 1.216 1.307 1.666 2.3.45.996.977 1.79 1.584 2.384.193.206.4.246.616.116.221-.127.411-.266.567-.416.444-.417.875-.996 1.292-1.742.416-.75.768-1.387 1.058-1.917.177-.327.371-.562.583-.708.211-.144.525-.142.942.008.383.163.704.365.967.609.266.239.527.521.783.841.283.363.354.842.217 1.442a8.201 8.201 0 0 1-.967 2.275c-.456.746-.906 1.44-1.35 2.083-.44.657-.908 1.29-1.408 1.9-.496.607-1 1.209-1.517 1.809-.467.529-.942 1.056-1.425 1.583a11.085 11.085 0 0 1-1.558 1.425c-.6.45-1.15.74-1.65.867-.39.1-.842.039-1.359-.184-.512-.227-.871-.468-1.075-.725-.2-.26-.406-.535-.616-.825-.207-.293-.198-.57.025-.833.177-.21.435-.425.775-.642.343-.216.635-.452.875-.708.21-.221.418-.404.625-.55.21-.144.491-.458.841-.942.684-.754.669-1.529-.041-2.325a17.14 17.14 0 0 0-1.2-1.441 51.083 51.083 0 0 1-1.225-1.392 17.447 17.447 0 0 1-.659-.8 4.575 4.575 0 0 1-.541-.875c-.15-.277-.23-.521-.234-.733-.006-.217.102-.467.325-.75ZM62.77 74.569s-10.2 20.16-4.151 30.277c6.05 10.116 12.348 29.025 28.991 32.135 16.642 3.109 44.667-5.791 53.398-14.585 8.734-8.792 18.29-35.065-.25-56.692-18.539-21.625-44.63-24.414-77.987 8.865Z" fill="#CFF69B"/><path d="M128.102 118.771c.152-.086.302-.171.454-.254-.019-.019-.037-.029-.066-.048.114-.179.216-.359.331-.538.727.527.933 1.329.489 1.907.238.254.123.527-.056.754-.142.189-.187.377-.246.596-.15.631-.385 1.235-.518 1.877-.142.66-.188 1.293 0 1.943.037.142.029.302.037.473.435.282.66.642.388 1.15-.019.048.018.123.037.19.019.037.056.067.123.142.142-.257.254-.492.406-.709.131-.198.227-.481.567-.387.66-1.057.848-2.265 1.104-3.454.102-.49.254-.963.358-1.453.123-.622.244-1.237.321-1.868.094-.698-.048-1.388-.01-2.104.114-.048.227-.105.321-.153.481 1.567.056 3.107-.094 4.775-.133.294-.425.69-.236 1.219.057.15-.077.367-.133.575.096.131.179.254.275.396-.039.142-.067.283-.104.425l.16.302c.038-.008.094 0 .105-.029.12-.225.32-.452.339-.688.046-.812.433-1.5.736-2.227.414-1 .51-2.058.189-3.048-.406-1.256-.783-2.547-1.604-3.67.112-.134.206-.238.3-.35.596.679 1.323 1.708 1.708 2.745.057-.556.104-.962.152-1.377.038-.01.075-.018.105-.029.037.096.093.179.112.284.038.272.067.556.094.85.114-.265.208-.511.377-.907.058.246.114.34.096.425-.029.225-.086.463-.134.727.171.027.275.046.359.065.16-.169.312-.329.521-.556v.481c.489.16 1.018.056 1.527.075.51.019 1.02 0 1.529 0 .529 0 1.066.019 1.596 0 .5-.019 1.008-.16 1.5-.094.548.075 1.01-.216 1.537-.179.5.048 1.011.048 1.54-.235l-.246-1.105c-.067-.275-.086-.518.292-.66.377.867.472 1.765.5 2.671-.217.179-.415.348-.613.519-.094-.077-.217-.105-.142-.302.048-.123-.056-.313-.093-.482-.436.142-.823.132-1.209.142-1.179.027-2.341.329-3.539.302-.773-.019-1.557.179-2.34.263-.396.047-.802.066-1.198.104-.633.056-1.256.123-1.954.198-.171 1.245-.179 2.529-.642 3.729-.452 1.187-.604 2.489-1.387 3.604-.094.029-.236.075-.377.123l-.284-.936c-.443.361-.612.784-.82 1.171-.492.917-.727 1.227-1.415 1.679-.181.38-.048.869-.454 1.19-.311-.31-.433-.65-.433-1.075 0-.35-.086-.69-.123-1.037-.019-.19-.019-.38-.038-.623-.321-.511-.435-1.144-.473-1.767-.027-.527.123-1.075.246-1.604.142-.565.34-1.123.519-1.679.066-.209.123-.415.198-.623.16-.415.293-.829.133-1.35-.746.481-.7 1.398-1.19 1.954.03.123.113.264.067.331-.35.565-.179 1.254-.492 1.829-.104.19-.16.407-.264.596-.075.131-.188.236-.083.415.027.056-.04.227-.115.283-.433.34-.888.652-1.433 1.048-.198.329-.217.877-.519 1.321-.096.131-.115.329-.133.5-.019.198-.009.396-.009.594-.16.085-.294.152-.425.218-.066-.066-.133-.096-.16-.152-.302-.612-.417-1.273-.519-1.954-.133-.923-.096-1.84-.123-2.765-.01-.168-.075-.339-.123-.575.113-.358.292-.764.359-1.189.075-.538.414-.944.575-1.433.189-.578.472-1.115.622-1.7.096-.367.019-.792.019-1.255-.444.255-.81.49-1.094.888-.331.462-.67.904-.783 1.471-.019.104-.075.208-.075.312.019.736-.246 1.359-.698 1.934-.141.179-.208.425-.36.604-.386.462-.792.898-1.169 1.312-.123.594.065 1.086.235 1.623-.235.075-.452.15-.735.246l-.821-.981c-.171-.784-.339-1.492-.473-2.219-.141-.84-.216-1.69.029-2.5.669-.642 1.009-1.454 1.425-2.331-.302.056-.547.104-.689.131-.452-.038-.792-.065-1.142-.102-.235-.029-.481-.048-.708-.104-.425-.096-.848.027-1.273-.011-.765-.066-1.529-.027-2.294-.008-.283 0-.556.075-.831.075-.717-.01-1.425-.056-2.142-.075-.329-.01-.65-.029-.971.102-.208.085-.5.077-.718.01-.65-.197-1.311-.085-1.963-.122-.508-.028-1.027-.067-1.594-.105-.481.209-1.047.171-1.614.142-.329-.019-.642-.085-.971.048-.171.067-.417.094-.585.019-.321-.142-.652-.086-.973-.113-.321-.029-.679-.171-.952-.077-.359.123-.642.011-.955-.046-.093-.018-.198.065-.302.104-.216-.077-.443-.16-.518-.189-.709.075-1.273.16-1.84.189-.794.038-1.585-.058-2.358.161-.313.083-.596-.04-.898-.029-.84.037-1.68.093-2.51.037-.49-.029-.99.029-1.472-.056-.256-.048-.406.008-.547.265-.048-.078-.094-.134-.17-.238h-.745c-.152 0-.331.04-.463-.019-1.122-.452-2.283-.168-3.464-.235 0 .604-.008 1.152 0 1.7.019.669-.102 1.302-.452 1.877-.104.16-.152.369-.18.556-.066.519-.368.944-.51 1.425-.104.35-.187.377-.631.538a13.532 13.532 0 0 1-.492-.444c.048-.621-.216-1.169-.604-1.604-.385-.452-.444-.981-.583-1.5.187-.302-.021-.594-.058-.888-.038-.366-.17-.698-.028-1.085.065-.188-.075-.452-.141-.744-.284.123-.548.225-.821.34-.03.585-.048 1.15-.075 1.746.008.593.037 1.227.037 1.858 0 .312-.104.623-.114.935-.027.934-.31 1.792-.688 2.632-.095.218-.048.547-.2.66-.262.2-.12.444-.206.652l.104.104c-.246.246-.481.49-.727.736-.387-.18-.537-.388-.69-.605-.026-.868-.216-1.679-.735-2.406-.17-.246-.283-.529-.433-.821a.864.864 0 0 0-.369.821c.048.284-.075.511-.085.754-.009.502-.18.992-.046 1.511.046.198.244.529-.115.746-.708-.246-1.19-.746-1.529-1.407a12.424 12.424 0 0 0-1.037-1.67c-.52-.707-.971-1.49-1.105-2.415-.112-.813-.623-1.417-1.17-2.067-.255-.518-.046-1.246-.5-1.764.018-.123.047-.246.077-.377-.388-.077-.727-.171-1.077-.2-.348-.038-.707-.009-1.075-.009-.094-.123-.18-.246-.294-.396-.225 0-.471-.029-.706.009-.209.029-.417.123-.66.198-.02-.15-.03-.284-.049-.425.444-.142.869-.273 1.313-.415v-1.056c-.246-.115-.492-.236-.794-.377.133-.275.208-.529.35-.738.415-.593.735-1.246 1.273-1.746.256-.235.53-.443.802-.65.037-.029.123.009.19.009.141.216.047.369-.113.519-.435.379-.737.85-1.03 1.35.188.093.34.17.472.227-.027.32-.046.593-.075.933-.246.425-.444.935-.359 1.548.594.075 1.171.067 1.784-.104.141-.538.31-1.046.406-1.586a2.95 2.95 0 0 1 .99-1.735c.425-.377.962-.708 1.68-.406.132-.18.311-.369.424-.594.2-.406.502-.596.944-.577.133.01.264 0 .5 0 .066.085.17.227.264.339.84-.027 1.454-.47 1.963-1.123.293-.112.595-.243.887-.358.142.038.265.077.425.115.19.5.69.65 1.133.877.207.104.359.321.5.519.52.689.83 1.085 1.709 1.425.404.085.81.141 1.206.254.85.256 1.096.943 1.2 1.643.038.263-.104.557-.115.83-.008.425.02.85.03 1.331.291-.029.575-.056.858-.075.548-.029 1.104-.096 1.642-.048.472.037.925.227 1.387.329.123.029.273.067.388.021.556-.208 1.141-.123 1.708-.104.717.019 1.444-.077 2.169.075.387.085.82-.067 1.227-.086.235-.008.473.048.775.075.404-.064.866-.187 1.34-.206.97-.037 1.943-.029 2.916-.01 1.254.029 2.5.114 3.754.123.794.01 1.586-.019 2.379 0 .434.01.867-.105 1.302-.113.953-.029 1.896.104 2.84.206.104.011.208-.045.313-.045.254-.011.508 0 .772.027.5-.123.973-.236 1.53-.102.462.112.981 0 1.473-.04.329-.027.687.058.933-.188.746.169 2.577.188 3.114.038 1.028.358 1.236.34 1.83-.123.189.113.36.265.558.321.198.056.433.01.698.01.548-1.021 1.112-2.058 1.698-3.143.114.01.264.037.435.056-.141.66-.51 1.162-.652 1.764-.067.284-.217.596-.51.794a.67.67 0 0 0-.273.642c.029.302-.094.548-.246.802a4.169 4.169 0 0 0-.358.754c-.207.548-.463 1.048-.982 1.342.011.564-.048 1.056-.368 1.527-.244.36-.263.85-.027 1.323.187.377.216.839.339 1.339.131.179.321.415.5.661-.16-1.075.056-2.059.492-3.048.112.094.16.131.206.179l-.217.952a2.917 2.917 0 0 0 1.019-.981c.34-.546.708-1.104.698-1.802 0-.179.142-.359.227-.557-.15-.216-.056-.443.067-.652.321-.518.612-1.066 1.075-1.481.048-.048.114-.085.141-.142.34-.631.907-.556 1.5-.508.18.65-.018 1.244-.131 1.829-.179.907-.585 1.727-.944 2.577-.406.973-.612 2-.377 3.067.009.048.057.104.038.123-.227.34-.011.679.027 1.01.048.538.152 1.057.246 1.594.01.038.048.067.085.104.302-.612.604-1.216.85-1.727.386-.348.698-.623 1.027-.914-.083-.067-.141-.123-.216-.18.189-.104.368-.218.529-.312.348-1.31.689-2.585 1.048-3.869.064-.227.206-.433.302-.66.083-.217.15-.454.225-.679.066.045.056.056.056.056Zm-55.448-3.313c.123.255.273.492.348.755.152.539.275 1.077.17 1.652-.085.452-.103.906-.151 1.368-.065.642-.123 1.284-.188 1.992.348.698.707 1.481 1.113 2.227.416.754.877 1.471 1.35 2.254.085-.16.168-.243.19-.348.15-.745.32-1.491.414-2.245.056-.425.142-.813.396-1.115 0-.754.141-1.481-.169-2.171-.02-.046 0-.123 0-.179.019-.396.019-.792.056-1.19.046-.537.038-1.064-.114-1.593-.075-.265-.094-.594.085-.888.227.283.415.529.604.765.086.291.171.593.265.906.169.585.302 1.15.179 1.783-.123.623-.085 1.265-.331 1.869-.019.056-.009.131 0 .198.066.406.077.84.208 1.227.34.992.736 1.954 1.115 2.935.018.057.075.094.12.15.398-.452.66-.933.66-1.529 0-.104.03-.216.078-.31.273-.511.32-1.086.444-1.642.046-.237.15-.473.12-.7-.074-.65-.037-1.31-.102-1.971-.029-.32.16-.679.065-.962-.123-.379.048-.679.058-1.021.02-.65.377-1.15.763-1.631.096-.123.294-.161.435-.236.367.463.848.763.915 1.34a2.734 2.734 0 0 0 0 .612c.075.538.294 1.096.217 1.605-.084.577.179 1.018.283 1.51.019.104.133.179.217.283.104-.245.2-.433.32-.716.096.698.18 1.291.265 1.952.123-.084.227-.123.246-.188.198-.679.377-1.36.585-2.123l.132-.104c0-.783-.038-1.51.018-2.237.019-.265-.123-.471-.083-.754.131-.944.12-1.907-.283-2.888-.228-.171-.5-.379-.709-.529h-1c-.377-.246-.783-.5-1.085-.698-.369-.5-.66-.898-.925-1.265-.51-.302-.973-.566-1.388-.812-.273.096-.462.16-.641.227.01.029.029.048.037.075l-1.34.831c-.66-.056-1.312-.114-1.954-.171-.433.444-.641 1.067-1.273 1.171l-.395-.123c-.086.067-.171.113-.217.179a7.74 7.74 0 0 0-.954 1.992c-.086.265-.16.548-.292.783-.312.575-.66 1.142-.379 1.84.02.038.01.085.01.133-.01.963.377 1.755 1.02 2.53.16-.757.178-1.492.49-2.153a.301.301 0 0 0 .028-.133c0-.65-.008-1.292-.302-1.906-.142-.311-.094-.358.256-.613ZM76.598 78.673c-.03-.302-.358-.594-.008-.915.47.075.679.527 1.037.763.206-.038.284-.18.284-.377.008-.567-.02-1.123-.238-1.66-.094-.228-.112-.492-.15-.736-.03-.198.056-.34.31-.406.417.414.246 1.066.586 1.604.096-.123.19-.236.294-.369-.275-.764-.54-1.556-1.2-2.075.029-.096.029-.152.058-.18.094-.095.198-.17.292-.264.652.123 1.056.471 1.264 1.094.16.5.359.981.548 1.473.038.094.113.18.18.273-.199.53-.247.548-.86.462-.274.294-.737 1.321-.774 1.738.198.406.764.546.794 1.104-.473.217-.72-.275-1.152-.312-.094.152-.209.32-.34.529.19.112.35.208.519.31v.35c-.169-.037-.31-.075-.471-.112-.454.556-.604 1.216-.69 1.914-.037.321-.13.642-.13.963 0 .5.064 1 .093 1.35.291.396.49.66.727.973-.16.16-.32.32-.577.564-.217.359.462.709.216 1.227-.31-.056-.641-.123-1.037-.198.462 1.067.917 2.078 1.34 3.096.2.482.416.971.52 1.471.057.302.113.681-.152.965-.056.056-.056.16-.085.243-.292.87-.586 1.728-.867 2.596-.04.123-.04.254-.058.444.481.056.944.008 1.398.027.206.01.444-.102.623.104-.019.019-.038.038-.056.067h-2.171c-.105.84-.605 1.575-.586 2.398-.235.519-.454.989-.67 1.471-.284.198-.546.406-.717.745-.113.236-.369.425-.575.605-.209.17-.134.491-.436.631-.262.123-.452.387-.679.596-.112.104-.254.198-.32.329-.255.521-.784.746-1.161 1.142-.283.293-.69.36-1.067.435-.225-.283-.027-.492.123-.642.596-.604 1.313-1.114 1.802-1.783.436-.604 1.01-1.096 1.388-1.738.104-.179.254-.339.462-.612.481-1.085 1.01-2.302 1.586-3.606-.934.085-1.813-.102-2.68.133-.19.046-.397.019-.595.019a35.124 35.124 0 0 0-3.736.254c-.604.075-1.219.085-1.831.142-.217.018-.425.075-.633.123-1.613.35-3.217.735-4.84 1.029-.633.112-1.219.291-1.823.5-.885.302-1.802.49-2.698.746-.566.16-1.141.302-1.67.556-.84.396-1.736.585-2.605.869-.358.112-.716.243-1.029.443-.433.273-.904.396-1.396.5-.5.104-.991.321-1.462.538a5.37 5.37 0 0 1-.784.31c-.69.209-1.358.425-2.01.738-.783.366-1.642.556-2.473.81-.31.096-.623.227-1.008.067.198-.123.366-.246.546-.34a46.653 46.653 0 0 1 3.427-1.473c.47-.179.933-.358 1.406-.527 1.142-.416 2.283-.85 3.433-1.237.869-.292 1.757-.509 2.625-.773.359-.104.688-.275 1.046-.377.813-.238 1.633-.444 2.446-.681.33-.094.66-.198.99-.303 1.67-.518 3.387-.783 5.087-1.15.698-.152 1.396-.33 2.094-.462.51-.094 1.037-.133 1.558-.198.642-.077 1.283-.16 1.925-.246.065-.01.131-.019.198-.019 1.094-.047 2.198-.085 3.294-.133.564-.027 1.141.04 1.706-.102.32-.077.681.008 1.03.019h.574c.35-.973.719-1.925 1.021-2.907a2.42 2.42 0 0 0 .019-1.152c-.18-.83-.425-1.641-.68-2.454-.047-.15-.256-.254-.387-.387.019-.019.085-.065.188-.15-.102-.556-.217-1.152-.33-1.727.132-.123.217-.198.321-.292-.19-.219-.368-.417-.566-.633.075-.123.16-.246.254-.396.029-.227.048-.481.085-.831-.254-.292-.575-.66-.914-1.038.47-.369.585.198.933.235.056-.104.142-.216.17-.347.057-.238.105-.473.124-.709.045-.84.32-1.623.623-2.398.064-.16.056-.34.075-.508-.142-.17-.275-.313-.388-.454v-.538c.113-.066.208-.112.302-.168.104.168.198.34.377.63.077-.35.115-.555.16-.764-.235-.302-.48-.585-.716-.858ZM90.81 61.006c.217.34.434.68.68 1.048-.444.198-.68-.19-1.086-.235-.198.123-.454.283-.708.444.085.272.17.537.273.858.077.075.208.187.36.329-.096.142-.18.256-.264.38-.19-.049-.35-.097-.548-.142-.009.197-.02.366-.03.583.142-.008.257-.008.407-.019l-.065.492c-.775-.03-1.51.085-2.304-.113.123.744.775 1.113 1.16 1.727a6.918 6.918 0 0 1-.056.386c-.292-.065-.537-.123-.727-.16-.235-.199-.442-.349-.62-.52-.172-.16-.313-.339-.503-.547-.102.756-.019 1.502-.358 2.162-.396-.056-.434-.283-.396-.51.075-.556.17-1.123.283-1.671.03-.142.19-.254.321-.425-.085-.188-.208-.442-.35-.735.18-.33.369-.68.604-1.105.142.246.257.444.388.68.123-.113.227-.207.331-.31-.115-.266-.219-.52-.35-.822-.208-.104-.462-.227-.708-.358-.586-.313-.754-.708-.557-1.342.18-.564.378-1.123.16-1.773-.633.113-1.17.575-1.678.99-.538.444-.936 1.058-1.454 1.53-.52.49-.717 1.151-1.094 1.689v.708c.083.113.187.227.291.358.18-.048.34-.093.538-.152.058.123.115.238.198.417-.302.16-.594.32-.867.462-.444-.283-.756-.577-.812-1.152.293-1.198 1.048-2.235 1.925-3.179.566-.614 1.208-1.152 1.84-1.7.378-.32.812-.567 1.36-.612-.038-.652.112-1.313.018-1.982-.066-.454.02-.906.009-1.368-.019-1.03-.225-1.992-.68-2.907a14.49 14.49 0 0 0-.764-1.36c-.075-.123-.235-.18-.367-.273-.745-.537-1.585-.831-2.51-.775-.256.019-.538.04-.765.152-1.056.5-2.152.933-2.973 1.84-.5.548-1.066 1.029-1.491 1.633-.065.094-.188.16-.377.18.048-.124.066-.284.16-.37.68-.706 1.256-1.508 2.067-2.112.84-.623 1.737-1.085 2.69-1.473.633-.254 1.283-.208 1.935-.01.16.048.32.096.585.179-.906-.792-1.973-.754-2.954-1 .537-.396 1.085-.217 1.65-.206-.358-.086-.706-.22-1.075-.257-.35-.045-.727-.083-1.056.01-.463.132-.917.095-1.369.105l-.01-.01c.085-.34.416-.31.641-.378.398-.104.823-.085 1.227-.17.454-.094.898.02 1.294.02.746.359 1.452.698 2.152 1.057.263.13.481.34.725.508 1.04.737 2.048 1.483 2.804 2.53.423.595.915 1.133 1.31 1.745.378.585.661 1.227.992 1.842.17.32.34.65.53.97.14.246.32.463.31.776 0 .093.056.224.131.291.321.313.425.698.425 1.219.51-.454.417-1.19.963-1.502.056.048.104.096.152.133-.123.68-.746 1.169-.69 1.896-.302.425-.604.85-.925 1.265-.066.085-.216.104-.329.152-.142-.313.188-.463.254-.72-.066-.055-.131-.15-.198-.16-.51-.045-.67-.49-.83-.84-.207-.443-.293-.943-.426-1.424-.254-.933-.367-1.915-.802-2.794-.292-.594-.444-1.273-.915-1.773l.01.009c-.293-.405-.576-.802-.868-1.207a4.318 4.318 0 0 0-.369-.454c-.273-.292-.49-.66-1.018-.727.15.246.235.454.387.604.433.463.604 1.048.736 1.634.093.425.179.858.197 1.283.02.537.303 1.067.03 1.614-.01.028.018.084.037.121.206.7.056 1.407-.03 2.096-.112.906-.395 1.794-.282 2.775.443.348.925.717 1.454 1.123.187-.03.47.123.623-.208-.02-.086-.038-.169-.057-.265.094-.046.188-.102.263-.15.162.094.312.18.454.265.18-.134.34-.246.49-.369-.065-.085-.121-.18-.18-.265.067-.112.134-.225.22-.366.253.075.526.131.801.187ZM128.377 74.425c-.294.096-.575.181-.869.275a.73.73 0 0 0-.471.388c-.264.527-.623 1.018-.962 1.556-.548-.15-.398-.84-.85-1.056a15.86 15.86 0 0 1-.492-.38c-.169-.385.059-.743-.262-.98.235-.595.593-1.086 1.15-1.434.256.291-.169.377-.123.65.029.048.077.141.123.218.056.02.104.057.133.046.415-.225.802.086 1.217.075.179-.008.35.059.556 0 .171-.046.377.048.596.077.866-.577 1.564-1.379 2.31-2.114.481-.471.917-.992 1.275-1.556.292-.455.538-.944.773-1.436.377-.783.756-1.567 1.067-2.377.189-.481.216-1.03.414-1.502.38-.906.38-1.858.5-2.802.048-.32-.262-.623-.018-.944-.236-1.048-.038-2.114-.113-3.17-.029-.482-.094-.963-.142-1.474-.197-.302-.387-.623-.395-1.056-.011-.283-.19-.575-.369-.82-.527-.755-1.217-1.37-1.858-2.038-.086-.086-.228-.115-.34-.181-.869-.52-1.888-.613-2.794-1.009-.208-.085-.444-.133-.641.132-.086.114-.35.114-.538.104-.217-.01-.425-.075-.671-.123-.641.396-1.31.802-1.981 1.208-.113.15-.198.34-.34.47-.312.303-.679.56-.82 1.003-.586.281-.623 1.046-1.161 1.367-.5.935-1.246 1.756-1.35 2.879-.01.104-.094.19-.131.291a6.211 6.211 0 0 0-.417 1.653c-.008.085 0 .17-.027.245-.264.594-.246 1.246-.398 1.87-.075.29-.027.612-.273.847a.211.211 0 0 0-.048.123c.048.548-.281.935-.508 1.388-.312.633-.783.98-1.435 1.141-.084.019-.15.077-.225.104-.275-.302-.275-.302-.059-.925.04-.008.086-.027.123-.018.038.01.077.037.115.056.641-.169.952-.623 1.216-1.225.359-.85.586-1.719.746-2.625.113-.613.369-1.208.444-1.831.038-.33.046-.66.179-.982.142-.34.206-.706.348-1.046.115-.283.238-.566.35-.85.113-.272.208-.604.415-.793.435-.386.652-.925 1-1.359.823-1.01 1.708-1.935 2.748-2.737-1.086.406-2.267.604-3.125 1.54-.859 0-1.227.877-1.982 1.179-.227.593-.745.906-1.32 1.123-.123.19-.217.387-.359.547a97.784 97.784 0 0 1-1.604 1.755c-.198.208-.369.416-.462.7-.075.235-.284.433-.444.641-.34.423-.69.848-1.048 1.273-.123.142-.254.331-.538.217-.066-.34-.141-.698-.198-1.056-.056-.359-.093-.717-.141-1.096.141-.046.216-.065.321-.102.283.396.406.82.387 1.31.321-.283.321-.283.377-.66.15-.123.377-.217.434-.367.227-.585.689-1.002 1-1.53.066-.114.133-.226.216-.32.671-.67 1.342-1.331 2.011-1.992.577-.556 1.179-1.095 1.756-1.66.612-.604 1.358-1.02 2.067-1.492.264-.179.612-.227.933-.33.35-.113.689-.245 1.048-.33.339-.085.689-.123 1.029-.18.537-.085 1.075-.178 1.612-.253.153-.021.313-.03.463-.01 1.077.14 2.152.32 3.181.697a.589.589 0 0 1 .169.094c.727.51 1.481.992 2.04 1.719.481.623.933 1.283 1.168 2.037.332 1.03.802 2.04.557 3.19-.057.256.085.558.095.83.019.538 0 1.086.019 1.624.019.596.123 1.198.104 1.794a11.25 11.25 0 0 1-.256 1.858c-.131.614-.329 1.219-.508 1.82-.096.313-.142.653-.294.926-.283.529-.348 1.152-.765 1.623-.179.2-.216.52-.339.764-.281.54-.575 1.077-.877 1.604-.246.436-.669.728-.952 1.153-.321.48-.813.85-1.257 1.283-.187-.038-.377-.067-.623-.113-.16.273-.518.463-.612.867Zm-2.34 1.144c.102-.152.198-.302.292-.425-.085-.236-.171-.396-.433-.227-.029.227-.104.462.141.652ZM115.223 72.642c.556.237 1.085.123 1.537.406.246.152.463.294.613.548.198.34.444.641.746 1.066.633 2.02.093 4.238-.586 5.35-.15-.037-.31-.085-.481-.13-.481.518-.896.64-2.123.65-.698-.378-1.425-.765-2.142-1.161a1.864 1.864 0 0 1-.452-.369c-.264-.302-.416-.687-.775-.914-.075-.048-.085-.236-.093-.359-.011-.235 0-.473 0-.82.075-.199.168-.538.32-.85.207-.407.407-.84.698-1.18.452-.519.888-1.067 1.444-1.481.388-.283.85-.5 1.294-.756Zm.444 3.152c.168.208.329.416.46.585h.406c.075-.348.152-.679.227-.99-.131-.274-.189-.576-.529-.708-.179.094-.367.198-.564.302v.81Zm1.254 2.7c-.038-.556-.038-.556-.452-.69v.736c.168-.009.281-.028.452-.046Zm-2.944.802h.481c-.096-.134-.16-.217-.237-.331-.084.114-.132.17-.244.33Zm.452-3.917c.067.038.104.056.179.094.019-.113.038-.206.086-.444-.142.19-.198.265-.265.35Zm1.898-1.123v-.075l-.238.027v.048h.238Z" fill="#4C3323"/><path d="M79.919 72.17c-.34-.112-.575-.368-.83-.603-.35-.332-.697-.68-1.095-.944-1.188-.754-2.027-1.831-2.802-2.973-.425-.631-.888-1.246-1.321-1.869a1.572 1.572 0 0 1-.18-.348c-.037-.077-.029-.19-.074-.256-.567-.765-.634-1.708-.925-2.575-.171-.51-.19-1.058-.284-1.596-.037-.227-.112-.444-.133-.66-.038-.463-.094-.933-.046-1.396.086-.85.246-1.69.388-2.53.045-.274.112-.558.187-.878.056-.102.152-.244.198-.404.417-1.38 1.03-2.663 1.973-3.757a9.258 9.258 0 0 1 3.53-2.566c.197-.086.414-.115.622-.171l.008.01c.03.056.059.113.105.206-.123.067-.244.142-.377.19a6.25 6.25 0 0 0-2.246 1.313c-.548.5-1.18.962-1.51 1.679-.113.245-.36.433-.576.69-.019.083-1.131 3.67-1.112 3.783 0 .254.027.518-.01.764a9.617 9.617 0 0 0 .074 3.321c.171.925.444 1.823.596 2.748.065.385.217.717.415 1.008.168.265.273.538.406.802.169.35.367.698.612 1 .378.463.803.88 1.238 1.342.358-.358.481-.82.66-1.265.17-.416.405-.82.623-1.218.225-.415.471-.821.725-1.265.16.256.115.425 0 .604-.168.265-.32.556-.49.859.255.19.453.341.67.502.152-.398.302-.775.454-1.152.046.008.093.027.141.037-.096.444-.179.888-.283 1.377.348.171.68.34 1.03.51.235-.491.48-.991.724-1.51.096.056.152.086.227.123-.075.556-.529 1-.49 1.615.17.075.349.15.528.216.179.067.358.113.537.16.134-.301.257-.547.407-.887.16.302.152.519.066.709-.275.612-.246 1.254-.227 1.895 0 .038-.048.078-.085.134-.084-.038-.18-.077-.33-.142.038-.481.076-.973.105-1.481-.359-.104-.709-.209-1.067-.313-.227.217-.294.51-.32.832-.038.32-.086.65-.153.962-.027.104-.15.188-.244.32-.114-.095-.19-.17-.275-.245.18-.708.35-1.396.52-2.096-.349-.198-.688-.385-1.057-.594-.292.698-.586 1.388-.869 2.078-.264-.021-.225-.209-.18-.342.134-.367.284-.725.436-1.094.113-.273.244-.556.377-.84-.235-.179-.425-.32-.633-.48-.623.612-.65 1.556-1.264 2.216.406.463.802.88 1.283 1.227.69.51 1.483.69 2.275.898.481.12.944.31 1.406.49.415.16.642.5.773.887-.142.49-.556.567-.99.698.075.473.15.906.236 1.417-.01.008-.067.075-.152.16-.66-.444-1.198-1.03-1.925-1.331ZM89.99 72.35c.583.217 1.206.519 1.735.981.067.056.16.104.19.171.28.669.735 1.273.885 2 .104.508.219 1.019.35 1.623-.075.246-.17.604-.227.794-.567.32-1.008.546-1.425.81-.567.369-1.123.765-1.85.754-.084 0-.18.115-.236.152-1.018-.093-2.104.18-2.895-.698-.096-.275-.198-.547-.294-.82-.142-1.002-.019-1.992.425-2.927a6.631 6.631 0 0 1 1.454-1.971c.027-.03.094-.03.112-.056.434-.51.992-.765 1.776-.813Zm-.294 2.142c-.019.548-.056.991.491 1.264.18-.056.415-.131.632-.206.141-.275.264-.51.368-.727-.197-.435-.085-1.03-.764-1.133.027.141.048.283.056.35-.302.179-.556.32-.783.452Zm-1.567 3.83c.115-.205.19-.347.313-.555-.38.179-.38.179-.313.556Zm3.219-2.055c-.358.406-.358.406-.104.668.037-.225.066-.404.104-.668Zm-2.313-.18c-.018-.018-.048-.037-.066-.056a1.73 1.73 0 0 1-.123.169c.019.01.04.03.048.037.048-.045.093-.093.141-.15Zm2.642.132c0-.009 0-.027-.008-.038-.048.01-.096.01-.142.019 0 .019.008.037.008.048a1.6 1.6 0 0 0 .142-.03ZM165.652 91.573c-.096.01-.198.056-.294.037-1.104-.227-2.198-.49-3.312-.698-1.15-.208-2.321-.377-3.481-.547-.992-.15-1.982-.284-2.973-.415-.348-.048-.717.056-1.019-.208.008-.038.019-.084.029-.15-.133 0-.321-.057-.379.008-.206.238-.396.227-.688.17-.397-.085-.831-.018-1.237-.074-.754-.104-1.519-.058-2.273-.238a1.895 1.895 0 0 0-.858-.008c-.596.15-1.19.027-1.775.037-1.171.02-2.34-.047-3.511-.037-.529 0-1.066.067-1.596.123-.235.019-.46.104-.706.123-.623.056-1.256.075-1.879.142-.537.056-1.075.15-1.612.225-.417.058-.821.133-1.238.16-.273.019-.5.115-.754.19-.717.235-1.444.425-2.265.67.075-.237.113-.379.161-.51.973-.283 1.906-.575 2.85-.831a20.557 20.557 0 0 1 1.66-.34c.831-.142 1.652-.283 2.481-.385.615-.077 1.227-.086 1.842-.152 1.471-.16 2.952-.123 4.425-.132 1.283 0 2.567.084 3.85.236.254.027.51.008.765.027 1.048.085 2.095.133 3.133.283 1.142.16 2.265.436 3.396.633.898.16 1.812.255 2.7.425.764.142 1.529.359 2.283.538.736.18 1.481.358 2.219.537.037.01.064.057.094.086 0 .037-.019.056-.038.075ZM148.44 136.419c-.19-.407-.378-.823-.567-1.227-.954-2.059-2-4.069-3.275-5.957-.161-.235-.292-.481-.452-.716a21.627 21.627 0 0 0-2.227-2.765c-1.011-1.048-2.029-2.096-3.021-3.152-.858-.925-1.754-1.821-2.717-2.633-.048-.038-.075-.094-.141-.179.452-.255.829-.048 1.15.17.689.463 1.35.963 1.991 1.482.321.254.586.575.869.877.246.254.452.537.708.783 1.377 1.358 2.661 2.802 3.784 4.379.331.463.575.971.85 1.473.433.783.906 1.556 1.273 2.369.537 1.16 1.01 2.358 1.51 3.537.131.321.265.652.348.982.048.17.01.368.01.558a.27.27 0 0 0-.093.019ZM73.154 84.902c-.227-.067-.473-.096-.679-.19a27.336 27.336 0 0 1-1.577-.802c-1.227-.66-2.538-1.152-3.84-1.614-1.558-.546-3.143-1.009-4.718-1.481-2.115-.623-4.19-1.37-6.23-2.18-1.63-.652-3.302-1.256-4.84-2.123a2.896 2.896 0 0 1-.868-.764c.406.056.82.064 1.208.18.707.216 1.396.489 2.094.753.709.273 1.417.575 2.123.869.67.273 1.331.556 2.002.802 1.008.369 2 .81 3.03 1.142 1.687.548 3.33 1.235 4.991 1.868.877.33 1.746.67 2.615 1.02.3.122.602.253.877.424.708.425 1.5.698 2.19 1.18.366.264.81.435 1.206.651.141.076.275.188.406.284l.01-.019ZM103.294 104.04c-.15-.019-.302-.03-.538-.057-.443.105-.443.859-1.029.982.096-.623.142-.698.727-1.18-.689-.047-.981.557-1.518.84.045-.615.612-.794.764-1.265-.123.105-.264.198-.377.303-.387.347-.823.668-1.152 1.075-.358.454-.906.82-.906 1.577.254-.228.462-.407.727-.642.066.206.112.358.16.527.254.19.548.294.906.217.217.189.453.387.698.595-.104.265-.35.217-.548.198a9.487 9.487 0 0 1-3.037-.935c-.115-.056-.227-.131-.358-.206a2.87 2.87 0 0 1 .735-.992c.131-.112.227-.264.34-.396l.056-.085c-.019.029-.03.067-.048.094h-.34c-.262.275-.518.539-.99.529a7.17 7.17 0 0 0 .065-.415c-.093 0-.187.009-.273 0a2.584 2.584 0 0 1-1.066-.302c-.509-.283-1.075-.462-1.604-.689.047-.038.114-.086.216-.169-.329-.331-.773-.425-1.179-.623v-.265c.406-.235.69.123 1.01.236.348.123.586.358.65.764.18-.037.332-.075.444-.104.369.171.738.302 1.086.492.34.187.69.141 1.029.112.34-.027.679-.112 1.056-.093.436-.332.85-.68 1.302-.973.463-.292.944-.546 1.181-1.057.311.048.5.132.65.35.198.292.463.519.878.405.104-.028.256.037.35.104.302.208.593.443.991.746.225.093.65.131.811.641-.53 0-.952-.235-1.444-.273-.104.161.056.527-.369.575-.16-.189-.064-.443-.083-.66.046-.056.094-.113.169-.198-.198-.115-.34-.198-.623-.358.235.283.358.423.481.575Zm-3.596.529-1.027.877c-.077.141-.17.329-.265.519.113.056.188.104.302.16.16-.519.463-.933.877-1.275.067-.056.067-.198.094-.3.388-.029.521-.387.746-.604-.31.112-.537.348-.727.623ZM101.425 95.527c.256.227.256.227.34.775.104.008.208.008.312.019l.019.019c-.086.123-.161.254-.254.395.083.15.16.302.235.444.067.008.113.027.142.019.329-.19.66-.388 1.075-.51-.046.066-.086.152-.15.197-.294.227-.596.436-.925.671.291.302.631.292.925.359.291.066.593.085.887.01.3-.067.594-.123.99-.208-.661.63-1.754.783-3.179.48-.115.076-.257.18-.436.293-.064-.094-.131-.17-.187-.244-.161.075-.313.15-.492.225-.027-.094-.046-.169-.056-.206h-1.265c-.179.104-.452.264-.735.425-.104-.38.291-.321.396-.492-.18-.235-.37-.47-.557-.717-.283.217-.623.471-.973.707-.037.029-.123-.02-.283-.057.698-.519 1.34-.99 1.992-1.47-.538-.549-1.454-.482-1.915-1.171.16-.35-.058-.548-.35-.736.16-.302.31-.585.463-.869-.048-.141-.086-.264-.142-.414.112-.104.246-.219.377-.34.075.065.123.102.171.15-.03.01-.067.03-.03.01-.028.038 0 .009.02-.028.414-.255.84-.53 1.264-.776.085-.045.208-.027.32-.037l.03.03c-.294.216-.596.424-.88.651a1.46 1.46 0 0 0-.395.471c.84-.406 1.558-1 2.444-1.294l.037.048c-.441.302-.885.613-1.34.915-.462.312-.943.585-1.368.935-.206.169-.31.463-.5.754.283.02.454-.122.633-.225.925-.54 1.85-1.077 2.784-1.595.302-.171.623-.321.935-.463.075-.03.188.038.281.056l.021.02c-.689.397-1.387.782-2.066 1.189-.228.13-.425.302-.586.406-.077.198-.123.34-.17.47-.5.172-.5.172-.699.567 1.134-.387 2.067-1.123 3.257-1.462-.19.415-.586.406-.832.623-.245.227-.593.35-.895.519-.303.17-.605.33-.963.529.188.264.348.481.508.698.548-.255 1.086-.51 1.623-.773l.019.018c.021.028.04.057.058.084.019-.027.038-.065.057-.094h.008Zm-.404.481c-.775.359-1.521.66-2.171 1.265.292.227.567.444.83.652.424-.32.801-.615 1.162-.898.064-.33.12-.65.179-1.019Zm.046 1.888c-.105-.198-.169-.33-.236-.452-.15.102-.283.187-.51.348.283.037.454.056.746.104ZM120.402 116.752c-.142.008-.283.008-.481.019.198-.738.379-1.417.558-2.106.359-.905 1.142-1.348 1.971-1.773.417-.217.906-.265 1.283-.575.369-.302.794-.54 1.18-.823.181-.14.331-.329.52-.519-.604.085-1.152.19-1.708.217-.208.01-.435-.15-.698-.367.121-.056.236-.104.433-.198.613.104 1.35.027 2.075-.114.048.16.078.256.096.32.944-.302 1.888-.593 2.869-.904-.085-.181-.16-.36-.246-.567.094-.104.209-.216.331-.35.453.34.811.69 1.123 1.123-.443.198-.443.198-.973.019-.47.473-1.114.596-1.727.794-.831.273-1.604.65-2.302 1.208-.473.377-.925.802-1.558.944-.179.038-.329.198-.49.31-.35.255-.698.519-1.066.755-.35.416-.613.86-.679 1.443-.038.369-.313.709-.511 1.144ZM127.244 81.08c.104-.52.189-.982.283-1.463.075-.01.16-.01.246-.02.131.228.056.426-.019.643-.067.206-.037.433-.048.69.236.235.321.545.406.876.123.5.332.99.471 1.49.219.775.604 1.491.746 2.294.058.293.265.547.369.84.227.614.433 1.237.623 1.86.056.179.048.385.048.585 0 .706.225 1.377.366 2.056.011.056.057.113.086.152.066-.2.141-.398.235-.662.123.123.179.181.19.19-.067 1.16-.321 2.179-.954 3.066-.065-.008-.123 0-.15-.019-.057-.037-.094-.085-.142-.123.302-.829.246-1.668.123-2.518-.104-.69-.19-1.388-.321-2.067-.085-.444-.227-.888-.358-1.32-.332-1.067-.671-2.126-.992-3.19-.265-.85-.519-1.7-.754-2.548-.077-.302-.142-.586-.454-.813ZM89.12 96.056c.188-.368-.056-.756.236-1.123.246.359.067.725.19 1.104.168-.029.348-.066.518-.095.065-.207.113-.377.17-.546h.104c.047.187.104.385.16.604.444.065.887.142 1.331.18 1.198.122 2.359.366 3.481.82.057.019.094.083.134.131.008.01 0 .038 0 .113-.548-.065-1.021-.359-1.53-.452-.51-.094-1.037-.075-1.595-.105.048.246.104.51.17.813-.047.046-.122.112-.235.217a54.13 54.13 0 0 1-.585-1.067h-.954c.085.17.16.331.283.575-.046.048-.113.096-.206.181-.209-.181-.37-.312-.51-.435.018-.15.037-.265.056-.425-.303.037-.548.077-.821.104a1.5 1.5 0 0 0 .15.973c.208.377.416.754.643 1.123.18.302.442.49.802.519.46.027.915.047 1.378.075.093.01.187.029.273.141-1.396.113-2.794.227-4.294.359.556-.538 1.227-.388 1.783-.575-.906-1.257-.99-1.078-1.085-2.642-1.17-.01-2.31.235-3.53.396.096-.265.228-.369.417-.444.688-.283 1.396-.492 2.142-.519.31-.01.631 0 .925 0ZM67.54 111.25c.187-.16.32-.275.48-.417.207-.056.453-.123.67-.179.075-.216.141-.377.208-.564-.358-.115-.698-.227-1.17-.38.255-.122.368-.197.5-.243.49-.182.98-.35 1.462-.548.104-.048.19-.161.32-.284-.687-.189-1.425-.227-1.641-1.066.056-.094.114-.209.179-.329 1.01.254 2.01.5 3.077.762.048.142.112.361.16.502-.35.273-.69.471-.943.754-.396.444-.784.888-1.332 1.217.19.029.38.056.596.096-.641.792-1.727 1.094-2.566.679ZM143.542 107.258c.264.084.518.179.858.292-.179.292-.329.519-.481.754.208.059.414.123.671.19-.161.452-.313.831-.436 1.208-.046.142-.064.292-.094.444-.029.16-.018.16-.32.414a23.015 23.015 0 0 1-.198-.51c.056-.292.123-.575.187-.925-.367.096-.642.379-1.008.123.075-.631.754-.944.989-1.567h-2.425c.238-.519.634-.716 1.209-.602.171.038.339.083.51.113.056.008.131-.011.244-.03-.736-.254-1.396-.566-2.104-.706a41.813 41.813 0 0 0-2.198-.416c.112-.265.179-.415.246-.557.585-.491 1.198-.246 1.745-.029.925.369 1.821.831 2.755 1.256a5.623 5.623 0 0 0-.15.548ZM144.419 83.665c-.915.197-1.84.387-2.755.604-.595.141-1.162.387-1.766.462-.923.113-1.784.444-2.623.765-1.283.5-2.586 1.01-3.727 1.831-.104.075-.179.18-.265.283a.874.874 0 0 1-.668.359c.197-.398.358-.719.706-.981.473-.36.906-.746 1.443-1.003.407-.198.869-.329 1.219-.564.463-.313.963-.454 1.463-.634.329-.112.668-.179 1.008-.272 1.067-.294 2.125-.615 3.2-.877.444-.115.906-.134 1.358-.182a7.075 7.075 0 0 1 1.011-.064c.141 0 .283.104.425.16a.426.426 0 0 1-.029.113ZM144.231 110.013c.292-.057.461.077.602.256.642.762 1.077 1.612 1.379 2.566.188.594.225 1.188.33 1.784.095.5-.057 1.037-.105 1.537l-.65.519c-.208-.444-.395-.829-.556-1.235-.152-.359-.294-.717-.454-1.075-.169-.388-.415-.775-.329-1.305.187.011.367.019.594.03.312.925.614 1.802.914 2.679.029-.934-.094-1.84-.452-2.709-.31-.725-.612-1.452-1.067-2.112-.179-.246-.395-.538-.206-.935ZM131.981 95.15c.425-.075.604.123.802.406.463.669.954 1.302 1.398 1.896h2.709c.037.085.093.227.179.425-.757.15-1.454.292-2.227.444l.329.369c.66-.16 1.321-.209 1.944.093.01.046.029.086.018.094a6.2 6.2 0 0 1-.302.358c-.604.038-1.15.067-1.754.105-.235-.557-.679-1-1.387-1.198.01-.35-.161-.557-.463-.775-.35-.244-.594-.623-.877-.963-.227-.262-.435-.546-.69-.867a8.56 8.56 0 0 0 .321-.387ZM111.777 96.065c.056-.113.104-.236.171-.367.444-.32 1.104-.058 1.567-.596V93.98c.027 0 .064 0 .093-.008.086.377.161.754.255 1.187.416-.141.82-.291 1.227-.423a18.008 18.008 0 0 1 3.473-.812 21.66 21.66 0 0 0 1.075-.18c.208-.047.406-.112.502-.35.093-.216.235-.414.358-.622h.273c-.35.633-.661 1.246-1.142 1.746-.048-.027-.085-.057-.131-.084.075-.133.16-.256.235-.387-.075-.03-.123-.067-.152-.067-.802.198-1.593.406-2.358.746-.425.19-.925.198-1.396.292-.077.02-.142.077-.219.114-.641.198-1.283.396-1.82.556-.255.776-.463 1.444-.709 2.086-.064.16-.254.283-.377.425l-.037-.048c.075-.235.152-.47.245-.765-.35.059-.66.105-.962.16-.01-.037-.029-.074-.038-.112.094-.066.18-.16.284-.19.254-.064.508-.083.764-.16.102-.027.18-.15.3-.254-.433-.264-.81.209-1.216-.056.018-.056.018-.18.066-.198.236-.104.471-.19.717-.254.067-.019.171.075.246.056.187-.037.329-.123.254-.406-.462.112-.933.235-1.406.35l-.027-.03a1.636 1.636 0 0 1-.115-.226Z" fill="#4C3323"/><path d="M78.419 59.835c-.057-.045-.113-.083-.18-.14.094-.84.52-1.49 1.16-2.02.049-.037.124-.067.153-.123.406-.746 1.15-1.131 1.792-1.612.406-.302.925-.5 1.425-.623.5-.134 1.04-.115 1.558-.16.5-.038.867.216 1.208.5.057.301-.077.443-.35.556-.112-.048-.273-.113-.529-.217-.508.179-1.123.348-1.687.612-.577.265-1.096.623-1.663.955-.169-.284.01-.455.171-.578.425-.3.869-.575 1.31-.847.227-.142.473-.265.72-.396-.02-.04-.038-.077-.049-.123a6.219 6.219 0 0 0-.377.093 5.249 5.249 0 0 0-1.935.925c-.359.273-.736.538-1.027.87-.19.216-.417.358-.615.526-.387.332-.66.794-.764 1.313-.038.19-.009.406-.321.49ZM64.652 120.629c0 .086.008.171.019.302-.142.075-.294.161-.444.236-.115.058-.275.096-.331.189-.217.359-.623.434-.925.671-.169.131-.367.225-.527.377-.596.538-1.265.981-1.944 1.396a8.14 8.14 0 0 0-.992.756c-.641.527-1.264 1.075-1.887 1.613-.18.152-.321.339-.49.491-.323.292-.662.575-.983.869-.206.198-.396.415-.602.613l-.69.689c-.492.471-.981.944-1.462 1.415-.265.254-.52.519-.775.775a1.606 1.606 0 0 0-.057-.059c-.027-.037-.045-.075-.104-.168.746-.802 1.417-1.7 2.436-2.321.112-.227.254-.492.406-.775.169-.067.348-.131.546-.217.123-.633.85-.783 1.125-1.331.037-.075.12-.131.187-.179 1.16-.773 2.171-1.746 3.256-2.604.528-.415 1.105-.775 1.65-1.161l1.446-1.018c.33-.257.698-.492 1.142-.559Zm-8.106 6.229.056-.037s-.019.027-.037.046a2.917 2.917 0 0 1-.057.085c.009-.027.019-.064.038-.094ZM126.452 58.95c.206-.265.367-.208.538-.16.764.235 1.283.783 1.708 1.406.69 1.008 1.019 2.142 1.16 3.35.067.604.255 1.187.35 1.792.046.32.065.66.027.991-.066.642-.216 1.273-.235 1.906-.019.52-.377.877-.462 1.37-.094.045-.19.093-.359.168-.037-.056-.112-.123-.123-.198-.018-.15-.037-.32.019-.444.377-.791.444-1.679.708-2.51.094-.302.057-.66.009-.99-.094-.67-.302-1.32-.348-1.991-.048-.755-.321-1.444-.5-2.16-.152-.597-.529-1.04-.898-1.503-.396-.49-.925-.81-1.594-1.027ZM135.246 81.287c.492-.595 1.162-.954 1.746-1.425a21.053 21.053 0 0 1 1.756-1.264c.208-.142.481-.19.717-.275-.009-.008-.019-.056-.067-.15a35.732 35.732 0 0 1 3.454-2.03c.029.02.056.038.096.057-.04-.019-.067-.038-.104-.048.433-.273.858-.546 1.291-.82.123.058.217.095.388.17-.019-.112-.038-.17-.056-.254.377-.313.791-.51 1.31-.425l-.008-.01c.048.312-.236.435-.406.51-.746.302-1.425.727-2.123 1.112-.284.153-.557.34-.85.482-.425.208-.859.379-1.217.727-.142.141-.388.16-.585.246v-.153c.029-.018.066-.027.029-.008.018-.048 0-.01-.011.027-.085.048-.179.086-.264.134a.482.482 0 0 1-.065.075.37.37 0 0 0 .046-.094h.275c-.179.142-.358.291-.548.414-.773.482-1.556.936-2.256 1.53a3.475 3.475 0 0 1-.821.51c-.283.131-.471.34-.688.546-.179.179-.406.312-.614.462-.019-.027-.038-.046-.046-.056l.056.038c-.085.047-.179.104-.264.152l-.029-.03c-.009-.047-.038-.075-.084-.085-.019-.019-.039-.037-.058-.065ZM106.258 59.073c-.341-.067-.681-.104-1.01-.19-.735-.198-1.454-.529-2.19-.593-1.01-.096-2.018-.36-3.048-.067-.48.131-1 .094-1.5.16a70.95 70.95 0 0 0-2.775.415c-.19.037-.414.056-.575.264-.077.094-.302.086-.425.113-.037-.302-.085-.519-.085-.744 0-.208-.085-.444.142-.596.291.19.254.5.312.746.896-.208 1.754-.406 2.623-.604.046-.008.085-.019.131-.019.717-.048 1.444-.085 2.161-.141.219-.02.435-.057.652-.075.171-.02.35-.057.519-.038.754.075 1.51.16 2.264.265.954.131 1.813.575 2.719.858.056.019.094.086.142.131-.019.03-.038.075-.057.115Z" fill="#4C3323"/><path d="M145.769 74.823c-.038-.056-.067-.115-.142-.227.896-.415 1.794-.831 2.69-1.236.348.103.575-.454.887-.218.198-.132.348-.282.538-.359.604-.243 1.208-.5 1.839-.668.511-.134.992-.35 1.5-.482.5-.133 1.011-.256 1.511-.387.037-.01.085-.03.123-.03.679.105 1.283-.235 1.933-.283.283-.018.577-.056.869-.083.019.046.048.104.085.188-.716.16-1.406.35-2.104.462-.775.123-1.529.275-2.275.537-1.265.463-2.556.85-3.812 1.342-1.038.396-2.038.886-3.048 1.348-.198.104-.377.227-.594.096ZM141.136 105.237a1.577 1.577 0 0 1-1.078-.462c-.877-.867-1.764-1.727-2.593-2.642-.492-.537-.963-1.123-1.217-1.831-.077-.208-.096-.387.121-.49 1.483 1.867 3.114 3.594 4.767 5.425ZM95.244 95.14c-.34-.18-.669-.367-1.009-.52-.708-.328-1.443-.612-2.141-.962-1.331-.66-2.7-1.254-3.86-2.208-.049-.038-.057-.112-.105-.188.16-.19.369-.152.538-.077.5.227 1.002.444 1.473.72 1.208.687 2.406 1.405 3.614 2.112.49.293.981.577 1.463.879.048.027.066.102.104.16-.03.019-.056.056-.077.084ZM108.277 109.467c.227.631-.302 1-.339 1.575.168-.011.347.029.481-.038.348-.171.687-.377 1.019-.585.216-.142.414-.311.764-.265-.312.623-.906.869-1.35 1.256-.433.378-1.01.586-1.548.886-.141-.075-.291-.15-.433-.225 0-.096-.029-.179 0-.227.217-.377.444-.746.671-1.123.056-.094.083-.198.112-.302.094-.388.265-.709.623-.952ZM109.937 104.088c-.462.291-1.093.15-1.272.754-.142-.011-.257-.011-.38-.019a6.351 6.351 0 0 1-.187-.406c-.256.075-.511.141-.783.227-.19-.227-.444-.254-.746-.134-.254.115-.529.19-.792.284a23.716 23.716 0 0 0-.51-.329c.037-.057.075-.152.112-.152.633-.057 1.265-.105 1.898-.169.254-.029.5-.075.706-.115.104-.262.179-.462.257-.65.404-.037.329.302.452.481.614.105.312-.652.708-.756.037.021.094.029.112.059.134.291.265.593.425.925ZM112.9 104.473c-.556-.321-1.067-.613-1.556-.906-.407-.244-.832-.377-1.369-.302a5.04 5.04 0 0 1 .037-.34c-.764-.49-1.66-.821-2.358-1.463.008-.168.019-.31.027-.537 1.794 1.133 3.521 2.219 5.248 3.312.008.011-.01.075-.029.236ZM126.915 76.785c.395-.312.32-.895.802-1.047.216.141.141.283.046.406-.396.518-.584 1.131-.792 1.735-.123.36-.265.7-.661.981-.029-.668.369-1.15.463-1.754-.227.094-.396.169-.633.265.029-.53.302-.917.518-1.313.227-.396.342-.896.823-1.15.198.31.038.509-.123.725-.227.321-.435.652-.443 1.152ZM110.306 59.563h-.473c-.085-.113-.16-.217-.206-.273-.256-.171-.454-.332-.681-.444-.292-.142-.594-.283-.904-.331-.388-.057-.813-.075-1.182.018-.358.086-.679-.037-1.008-.037-.208 0-.34-.142-.417-.386 1.209.282 2.398-.114 3.569.14.179.077.377.208.575.219.444.018.679.235.765.65.018.104.075.198.112.302l-.123.123-.027.019ZM125.677 69.508c-.102 0-.169.01-.235 0-.038-.008-.067-.045-.132-.083.113-.406.255-.813.321-1.227.113-.708.359-1.406.086-2.133-.04-.094-.029-.217-.021-.33.048-.67-.083-1.312-.281-1.945-.105-.348-.35-.65-.53-.971-.075-.142-.16-.273-.264-.463.331-.01.425.19.537.33.5.641.709 1.397.813 2.17.094.719.112 1.444.142 2.171.027.642-.057 1.265-.332 1.86-.056.17-.056.378-.104.621ZM131.123 108.531c.141-.15.246-.264.387-.425.169.038.359.086.538.134.187.045.377.104.537.15.292-.169.575-.34.765-.444.31 0 .519.01.727 0 .187-.009.433-.113.546-.038.227.152.406-.037.623-.008-.065.31-.225.404-.509.463-.537.102-1.123.075-1.577.481-.679-.104-1.396.16-2.037-.313ZM114.646 100.104c-.265.377-.538.142-.802.113-.084.077-.179.141-.273.218-.104-.077-.209-.152-.321-.237-1.019.048-2.029-.15-3-.463-.085-.027-.152-.13-.246-.216.406-.16 1.717.01 4.642.585ZM114.967 91.196c-.642.444-1.142.802-1.669 1.152-.529.348-1.077.66-1.604 1-.54.348-1.067.717-1.604 1.085.262-.82 3.283-2.86 4.877-3.237ZM112.175 59.025c.321-.18.642-.369.962-.548.15-.085.15-.085.519-.056-.264.746-.679 1.396-1.077 2.114-.273-.293-.075-.529-.037-.802-.15.027-.284.057-.482.094a17.3 17.3 0 0 0-.272-.548l-.011.01.133-.133.019-.018c.086-.038.169-.075.246-.113.008 0 0 0 0 0ZM125.396 107.408c-.19-.35.112-.433.254-.604.971.369 1.858-.198 2.858-.273-.045.131-.045.246-.093.273-.396.198-.727.556-1.217.556-.104 0-.219.04-.321.067-.473.113-.954.198-1.481-.019ZM97.265 110.9c-.16-.34-.094-.519.15-.631.283.131.577.262.906.423.019-.169.01-.292.048-.404.027-.096.104-.18.168-.284.53.142.66.679 1.021.952.027.019-.01.123-.029.236-.783.096-1.519-.161-2.264-.292Z" fill="#4C3323"/><path d="M110.448 59.42c.217-.15.433-.29.65-.443.425-.302.85-.612 1.331-.952h.273v.385c-.217.19-.556.246-.527.623-.085.04-.171.086-.256.123l-.019.019-.131.133.008-.01c-.444.208-.885.425-1.348.623-.142.056-.321.048-.51-.019.123-.104.254-.206.377-.31l.019-.02c.056-.066.095-.114.133-.151ZM136.89 76.975c-.407.358-.869.631-1.35.896-.68.369-1.398.708-1.963 1.264-.473.453-.973.877-1.444 1.332-.189.179-.331.404-.51.602-.123.133-.254.264-.463.331.161-.273.273-.585.482-.813.368-.395.793-.743 1.179-1.122.641-.632 1.387-1.132 2.171-1.567.604-.34 1.235-.642 1.85-.963.018 0 .037.02.048.04ZM81.223 75.02c-.36-.614-.586-1.226-1.115-1.67-.519-.433-1.19-.396-1.775-.698.134-.235.332-.264.548-.227.254.048.51.115.813.19.745.254 1.245.84 1.508 1.623.077.208.342.443.02.783ZM129.585 104.927c-.689.49-1.36.773-2.264.783-.077-.029-.294-.114-.567-.216.161-.246.283-.406.567-.417.206-.008.423-.123.631-.123.548 0 1.067-.104 1.567-.452.029.179.048.302.066.425ZM124.15 74.662h-.425c-.227-.397-.208-.764-.038-1.141.244-.54.632-.973 1.046-1.388.238-.235.379-.604.813-.641.048.037.104.083.15.123-.396.462-.754.914-1.142 1.34-.433.489-.679 1.018-.404 1.707ZM68.644 118.375c.027.056.056.113.112.206-.793.369-1.519.85-2.331 1.19-.452.189-.84.529-1.265.794-.16.102-.31.216-.508.056v-.011c.198-.187.367-.414.583-.547.66-.405 1.332-.811 2.021-1.161.434-.225.915-.367 1.369-.546l.019.019ZM70.05 105.55c.915-.35 1.773-.679 2.642-.992.085-.029.198.038.31.057 0 .387-.34.443-.527.537-.577.283-1.19.481-1.794.7-.245.094-.47.094-.631-.302ZM127.206 104.19c.011-.075.019-.161.038-.292.879-.019 1.764.019 2.502-.604.027.029.056.066.083.094-.019.133 0 .312-.075.397-.65.698-1.594.848-2.548.405ZM111.777 96.463c-.396.291-.783.583-1.273.716-.519.142-.869.556-1.321.84-.179-.209-.037-.35.104-.482.527-.5 1.102-.935 1.773-1.216.227-.096.407-.38.717-.256l-.008-.009c.045.142-.284.273.008.407ZM125.348 69.735c-.254.436-.623.265-.858.236-.482-.056-.813.152-1.161.369-.208.133-.387.32-.577.472-.075.065-.16.113-.246.17-.179-.18-.112-.311 0-.434.219-.236.425-.492.671-.698.142-.123.331-.219.511-.265.556-.152 1.104-.179 1.66.15ZM128.34 65.99c.377.141.425.31.452.518.037.321.093.642.16.963.075.396.123.783.019 1.198-.113.435-.142.898-.217 1.406a13.212 13.212 0 0 1-.227-.254c.179-.633.123-1.275.086-1.906-.038-.594-.169-1.209-.273-1.925ZM105.898 95.131c.067.094.104.15.133.198-.179.19-.358.377-.566.604-.671-.133-1.161.557-1.907.53 0-.105-.037-.228.011-.257.179-.15.366-.358.575-.396.377-.056.641-.254.887-.491.284-.065.557-.121.867-.188ZM124.781 108.908c-.056-.056-.141-.16-.302-.339.152-.086.294-.169.473-.284.65.096 1.367.19 2.113.294-.292.433-.717.49-2.284.329ZM115.694 102.521c-.302.433-.65.396-.925.444-.527.093-1.057.131-1.575.254-.377.085-.784.104-1.134-.209 1.152-.329 2.332-.302 3.634-.489ZM125.848 70.51c-.131.244-.313.348-.538.34-.614-.037-1.095.217-1.491.669-.056.058-.131.096-.265.19-.027-.161-.094-.284-.064-.378.168-.51.583-.775 1.056-.868.406-.094.858-.038 1.302.047ZM76.333 66.81c0-.254-.037-.406.01-.51.386-.944.792-1.888 1.199-2.831.018-.038.112-.046.179-.065.056.425-.821 2.642-1.388 3.406ZM128.113 77.55c-.292.727-.586 1.452-.877 2.17a.298.298 0 0 1 .075.038l-.586.642c.208-1 .519-1.925 1.029-2.765.048-.077.161-.114.246-.17.046.018.075.056.113.085ZM107.494 109.55c.112.444-.057.765-.209 1.058-.264.538-.433 1.15-1.066 1.509.039-.527.293-.925.521-1.321.216-.396.187-.944.754-1.246ZM132.548 57.43c.321.453.265.935.169 1.387-.292 1.491-.509 2.058-.886 2.398.142-.709.348-1.303.49-1.917.152-.604.16-1.246.227-1.869ZM69.973 106.908c0-.093-.008-.16-.008-.254.66-.435 1.462-.491 2.17-.775.15.171.102.294-.047.396-.02.01-.038.029-.057.04-.623.216-1.256.433-1.887.641-.03.009-.075-.018-.171-.048ZM112.485 109.89c-.227.189-.443.387-.679.558-.481.329-.981.642-1.481.952-.227.142-.294.123-.69-.142.482-.264.963-.471 1.425-.716.453-.246.888-.511 1.332-.765.037.038.064.075.093.113ZM78.56 73.633c.16-.32.377-.227.5-.093.396.414.765.866 1.123 1.302-.075.15-.123.246-.198.377-.585-.425-.97-1.01-1.425-1.586ZM52.6 131.01c-.225.292-.396.661-.68.869-.556.396-.887 1.038-1.528 1.34.264-.444.443-.925.925-1.236.275-.179.435-.52.67-.821.16-.058.359-.133.557-.208.018.019.029.038.056.056ZM99.963 92.083v.225c-.17.059-.34.123-.52.18l-.026-.028c.037-.152.064-.302.131-.575.604-.764 1.538-1.152 2.435-.898-.152.19-.331.321-.547.303-.653-.067-1.115.293-1.605.652.057.056.094.093.132.141ZM92.998 60.073c-.075.008-.132.019-.198.019-.038 0-.075-.038-.142-.075.19-.765.454-1.51.88-2.182.272.048.216.227.178.37-.076.272-.208.537-.256.81-.045.275-.179.472-.31.7-.067.102-.094.235-.152.358ZM125.952 84.967c.329.152.538.246.746.34.198.32.385.64.583.972a4.994 4.994 0 0 1-.141.34c-.33.037-.915-.754-1.188-1.652ZM129.783 109.042c.094-.142.169-.265.254-.398.519.123.925.35 1.302.681-.462.423-.887.34-1.556-.283ZM130.896 93.933h-.377c.189-.802.612-1.454 1.048-2.227.066.169.15.273.131.33-.265.651-.538 1.274-.802 1.897ZM84.092 68.47c-.067.038-.115.076-.16.105-.049-.008-.105-.008-.124-.038-.066-.085-.16-.17-.16-.264-.037-.519-.058-1.048.131-1.548.048-.123.171-.217.321-.387-.008.764-.008 1.416-.008 2.133ZM115.911 101.567c-.746.198-1.407.377-2.161.585-.01-.01-.067-.075-.15-.16.706-.492 1.471-.575 2.265-.773.018.131.027.235.046.348ZM135.425 81.475c-.121.208-.262.396-.546.377l.009.01c-.028-.029-.046-.066-.075-.093-.019.037-.048.064-.067.102l.01-.008c-.029.037-.066.066-.093.104.037.018.064.027.102.046l-.009-.009c-.085.094-.152.198-.246.273-.227.18-.489.302-.65.567-.039.066-.181.075-.283.104l-.019-.019a3.005 3.005 0 0 1-.114-.114l-.027-.02c.527-.593 1.131-1.112 1.839-1.489.019.019.038.046.067.065a.097.097 0 0 0 .083.085l.019.019ZM127.169 87.365c-.038.027-.067.066-.105.075-.085.01-.168 0-.245 0-.273-.236-.538-.453-.811-.698-.075-.227-.094-.455.161-.615.631.53.698.615 1 1.238ZM126.236 90.667c0 .123.027.264-.011.377-.16.491-.321.991-.519 1.473-.104.264-.216.566-.633.652.36-.88.69-1.7 1.021-2.521.046 0 .094.01.142.019ZM115.383 108.702c-.189.169-.368.367-.585.519-.444.31-.906.604-1.369.887-.16.094-.321.236-.548.142.246-.312 1.832-1.331 2.463-1.585l.039.037ZM133.369 64.781c-.321.84-.652 1.634-1.254 2.313.008-.086 0-.18.027-.254.283-.615.575-1.209.858-1.823.077-.17.142-.31.369-.236ZM130.896 93.942c.406-.067.764-.35 1.189-.273.142.027.265.094.492.169-.2.122-.302.245-.406.235-.436-.038-.813.096-1.2.265-.046.018-.121-.028-.225-.046.064-.134.112-.246.15-.35ZM96.123 101.387c-.142.123-.284.255-.436.359-.527.377-1.15.548-1.791.898.216-.444.216-.454 1.008-.813.388-.171.738-.444 1.181-.481l.038.037ZM92.706 98.34c.152-.153.236-.217.34-.321.32.264.812.216 1.075.66-.198.086-.385.16-.575.227-.284-.19-.527-.358-.84-.566ZM133.077 59.969c.075.066.121.104.169.141-.227.613-.444 1.227-.669 1.832h-.36c.256-.7.558-1.332.86-1.973ZM105.54 109.606c.123-.056.208-.102.32-.16.18.369.03.727.115 1.085-.171.123-.34.238-.521.361-.216-.425.181-.842.086-1.286ZM112.25 89.383c.075.19.187.35.169.473-.102.5-.198 1-.519 1.434.114-.623-.188-1.31.35-1.907ZM131.84 94.292c.256.102.473.187.679.291.037.02.048.067.077.105-.219.387-.406.406-1.171.122 0-.264.208-.358.415-.518ZM119.338 93.131c0-.048-.011-.104.008-.133.556-.642.906-1.425 1.377-2.123.029-.037.104-.048.171-.075-.171.735-.888 1.81-1.538 2.34l-.018-.009ZM91.215 97.302c.406.425.727.746 1.066 1.094-.452.17-.716-.131-1.066-.254v-.84ZM133.029 83.194c0 .046.019.102 0 .123-.491.49-.981.97-1.473 1.452-.018.018-.083.01-.123.01.463-.596.869-1.256 1.586-1.596l.01.01ZM165.708 91.517c.896.13 1.755.387 2.642.735-.462.075-1.869-.292-2.698-.68l.056-.055ZM90.546 91.346c-.086.077-.18.152-.284.246-.19-.236-.35-.434-.518-.65v-.36c.141-.15.366-.132.462.047.123.217.225.463.34.717ZM99.944 88.6c-.396-.206-.765-.406-1.19-.623.096-.104.181-.206.302-.348.209.123.407.206.567.34.17.131.302.302.462.462-.045.056-.104.123-.141.169ZM94.433 99.152c.198-.133.302-.208.388-.264l.914.31c-.075.104-.123.254-.208.283-.396.132-.698-.085-1.094-.329ZM104.002 109.729c.067-.046.131-.094.217-.15.473.34.208.784.264 1.227-.16-.01-.254-.018-.377-.029-.037-.367-.066-.698-.104-1.048ZM116.996 100.265c-.311.51-.869.387-1.329.698 0-.207-.03-.311.008-.348.246-.275.831-.436 1.321-.35ZM126.583 88.26c.057.048.153.075.161.123.075.444.142.888.208 1.35-.152.046-.246.075-.321.094-.048-.037-.085-.056-.075-.067.113-.49-.218-.99.027-1.5ZM111.833 100.935c.227.463-.187.594-.31.84s-.331.444-.519.679c-.075-.01-.16-.019-.294-.037.294-.586.784-.955 1.123-1.482ZM92.754 100.463l-.737-.057c-.009-.131-.038-.208-.009-.254.046-.114.123-.227.198-.358.31.075.463.291.604.519-.018.045-.037.102-.056.15ZM99.123 88.685c.331.265.596.482.858.69-.225.367-.452.102-.623.019-.235-.104-.404-.321-.235-.709ZM133.219 61.969c-.04.17-.077.35-.123.518-.059.209-.142.407-.198.615-.048.188-.142.292-.425.292.206-.527.321-1.038.746-1.425ZM132.256 68.348c.027.246-.152.398-.275.567-.235.34-.471.67-.754 1.075.008-.405.348-.971.963-1.707.027.027.045.046.066.065ZM133.358 63.442c-.291 1.075-.441 1.377-.877 1.566.275-.585.511-1.114.756-1.633a.31.31 0 0 1 .121.067ZM98.915 87.015c.095-.246.283-.31.443-.246.294.104.586.237.794.596-.51.045-.813-.332-1.237-.35ZM111.221 88.327c.037-.019.123-.067.264-.152v1.067c-.104.018-.216.029-.331.048.019-.332.038-.623.067-.963ZM119.581 95.904c.275-.481.548-.962.859-1.519.058.444-.292 1.067-.802 1.575l-.057-.056ZM91.781 89.723c-.027-.206-.048-.348-.075-.585a51.2 51.2 0 0 1 1.056.35c-.387.093-.641.15-.98.235ZM90.62 89.827c.407-.075.434.246.567.492-.085.075-.152.131-.208.179-.444-.302-.444-.302-.358-.67ZM101.973 91.573c-.425.302-.802.66-1.331.794l-.038-.048c.35-.425.813-.66 1.331-.794l.038.048ZM112.721 98.208c-.396.236-.821.3-1.311.236.019-.198.142-.257.292-.265.331-.01.652-.01.981-.019l.038.048ZM113.74 98.915c.32-.396.32-.396.86-.207-.238.255-.481.367-.86.207ZM110.721 87.592c-.011.385.112.735-.171 1.037-.225-.283-.179-.567.171-1.037Z" fill="#4C3323"/><path d="M132.19 68.283c.15-.398.31-.793.641-1.096a2.062 2.062 0 0 1-.575 1.153.303.303 0 0 1-.066-.057ZM117.525 99.369h-.671c.321-.34.407-.35.671 0ZM78.881 96.698h1.104c-.425.225-.708.225-1.16.065.019-.028.037-.046.056-.065ZM133.558 82.93c-.01.066-.01.13-.029.235-.171.01-.339.018-.51.029l-.009-.01c.132-.132.265-.265.396-.407l.029.019c.038.04.075.077.113.114-.008 0 .01.02.01.02ZM115.571 98.104c-.302.094-.482.359-.792.075.254-.19.471-.152.792-.075ZM119.637 95.952c-.139.217-.291.433-.433.65-.104-.385.19-.519.377-.706a.19.19 0 0 0 .056.056ZM101.663 95.235l.481-.368c.008.35-.238.358-.436.414-.018-.008-.027-.027-.045-.046ZM71.756 93.83h.72c-.257.216-.493.045-.71.14 0-.047 0-.095-.01-.14ZM70.852 93.696h.744c-.33.17-.546.123-.744 0ZM65.038 104.681l.66-.321c-.16.396-.415.34-.642.34l-.018-.019Z" fill="#4C3323"/><path d="M64.388 104.965c.16-.217.377-.302.65-.284l.018.019c-.168.246-.404.283-.679.246l.01.019ZM131.179 85.063c-.056.12-.112.243-.208.462-.102-.313-.121-.483.171-.502l.037.04ZM102.492 96.065c-.057.19-.188.293-.396.275l-.019-.02c.075-.178.198-.293.406-.255h.009ZM119.998 96.717c.056-.115.102-.227.16-.34.038.027.075.046.113.075-.086.094-.161.198-.246.292l-.027-.027ZM102.615 95.933c.085-.093.17-.179.293-.32.038.329-.104.347-.293.32ZM69.804 118.063c-.096.066-.19.133-.275.197-.027-.027-.056-.045-.075-.075.038-.048.067-.112.123-.141.056-.027.142-.027.208-.048.009.021.009.048.02.067ZM168.502 92.375h.284v.067h-.284v-.067ZM70.275 93.573h.283c0 .019 0 .04.01.058-.095.019-.189.038-.283.046 0-.037 0-.075-.01-.104ZM102.361 92.62c-.086.049-.18.086-.265.132l-.019-.019c-.019-.273.142-.168.273-.13l.011.018ZM169.04 92.498h.291c0 .019.011.037.011.067l-.284.056c-.01-.038-.01-.075-.018-.123ZM64.377 104.954c-.056.246-.216.104-.358.038l.368-.027-.01-.011ZM63.81 105.2h-.291c0-.019 0-.048-.008-.067.093-.018.187-.037.28-.046.011.038.02.076.02.113ZM119.356 93.15a2.657 2.657 0 0 0-.16.254c-.029-.029-.058-.048-.096-.075.077-.066.161-.133.238-.198l.018.019Z" fill="#4C3323"/><path d="M131.425 84.78c-.085.093-.171.187-.254.282l-.04-.04c.04-.16.115-.253.294-.243ZM119.506 97.292c-.008.179-.104.264-.283.245l-.027-.029.254-.283c.027.03.037.048.056.067ZM115.344 108.665c.066-.078.133-.153.208-.246.115.246-.019.273-.179.283l-.029-.037Z" fill="#4C3323"/><path d="M119.771 97.019c.008.179-.094.264-.265.273l-.056-.057.265-.264c.027.019.037.029.056.048ZM101.708 95.292l-.283.112-.008-.008c.085-.058.16-.104.246-.16.018.018.027.037.045.056ZM102.369 94.773c.066-.01.133-.019.189-.03 0 .03.009.057.009.086-.065.009-.132.019-.198.019v-.075ZM102.219 91.412l-.246.16-.038-.047c.094-.038.19-.065.284-.113ZM102.219 91.423c.056-.048.123-.096.179-.142.019.027.029.056.048.094-.077.008-.152.03-.227.048ZM137.133 76.815c-.083.045-.16.102-.244.15-.02-.02-.029-.038-.047-.057.093-.029.197-.056.291-.093ZM65.896 104.304c.066.009.133.019.2.027v.059c-.067.008-.134.018-.2.027v-.113ZM99.962 92.083c.067-.048.123-.096.19-.141.008.027.027.064.037.093-.075.01-.15.03-.227.048ZM102.35 92.602c.067-.048.123-.094.19-.142a.339.339 0 0 1 .048.094c-.077.019-.152.048-.227.067l-.011-.019ZM69.02 118.092c.065-.048.124-.096.188-.134.019.03.03.059.048.086-.075.019-.15.037-.227.066.01 0-.008-.018-.008-.018Z" fill="#4C3323"/><path d="m69.04 118.11-.275.132-.009-.009c.086-.048.17-.095.265-.141l.019.018ZM119.092 97.669c-.048.037-.096.085-.142.123l-.01-.009c.037-.048.085-.096.123-.141l.029.027ZM102.625 95.933c-.048.048-.085.094-.133.132l-.009-.009c.046-.037.094-.085.142-.123-.01 0 0 0 0 0ZM118.808 97.915c-.018.037-.037.066-.01.018-.046.03-.008.01.01-.018ZM83.108 54.646l.04-.056-.058.037.018.019ZM83.1 54.638c-.019.027-.03.064-.048.093l.056-.085-.008-.008ZM79.919 72.16c-.02.03-.038.067-.009.01-.048.038-.018.02.009-.01ZM81.742 73.7l-.048.019.01-.048.038.029ZM128.377 74.425ZM73.144 84.92l.056.038s-.019-.029-.038-.048l-.018.01ZM137.133 76.815c.019-.04.048-.078-.008.008.085-.048.046-.03.008-.008ZM118.95 97.792c-.048.037-.094.085-.142.123l.009.01c.048-.048.085-.096.133-.133ZM115.627 95.131c.04.027.077.046 0 0 .04.075.019.038 0 0ZM101.425 95.404c.01.038.01.086 0 .123l-.008.01a.306.306 0 0 1-.123 0l-.019-.018c.048-.04.094-.077.15-.115ZM134.879 81.852c-.048.048-.096.085-.133.133l.01.009v-.15l-.01.008h.152-.019ZM66.577 116.61l-.04-.039c.021-.009.03-.038.048-.027.01 0 .03.027.038.037-.019.011-.027.019-.046.029ZM142.908 116.873l-.008-.038h.027l-.019.038ZM111.929 96.34c-.048.037-.096.083-.141.123l.112-.142.029.019ZM119.875 96.858c.038-.048.075-.096.123-.141l.027.027c-.056.04-.104.077-.15.114Z" fill="#4C3323"/><path d="M68.625 118.365c.046-.048.094-.086.14-.132l.01.009c-.048.048-.085.096-.131.133l-.019-.01ZM69.17 118.375c.02-.037.038-.067.011-.019.046-.029.009-.01-.018.009l.008.01ZM119.875 96.858c-.037.057-.077.105-.115.16l-.045-.047a2.77 2.77 0 0 0 .16-.113Z" fill="#4C3323"/><path d="m69.162 118.365-.056.112c.019-.027.046-.064.065-.094 0-.008-.009-.018-.009-.018ZM128.112 118.76c-.037-.018-.075-.037-.018-.008-.03-.056-.011-.019.008.019l.01-.011ZM119.223 97.537c-.046.048-.085.086-.131.132l-.019-.019.131-.131.019.018ZM76.598 78.673c-.019.037-.037.075-.056.104l.056-.104ZM96.094 101.358c.029-.027.056-.064.085-.093l.048.048c-.03.027-.067.056-.096.085l-.037-.04ZM87.875 53.306c-.019.027-.038.048-.038.048s.028-.02.046-.04l-.008-.008Z" fill="#4C3323"/></svg>