<svg width="61" height="60" viewBox="0 0 61 60" fill="none" xmlns="http://www.w3.org/2000/svg">
<path d="M10.2014 7.25279C16.8161 5.33831 20.5903 10.5729 26.2939 14.3403C32.8951 18.7006 40.711 20.7855 40.5832 28.5233C40.4605 35.9502 33.2513 37.9673 26.9768 42.2384C21.4125 46.0261 17.8473 50.9916 11.2345 49.4524C6.03952 48.2432 3.00344 45.2933 1.23283 40.411C-0.366784 36.0002 2.60047 33.1641 2.39773 28.4932C2.22206 24.4462 -0.12049 22.2275 0.690426 18.2537C1.81222 12.7567 4.65817 8.85715 10.2014 7.25279Z" fill="#CFF69B" stroke="black"/>
<path d="M43.026 8.97313C41.7949 10.2578 40.0969 11.2503 38.3229 11.6979C36.5492 12.1454 34.7403 12.0397 33.2485 11.1923C32.0087 10.488 31.5925 9.1358 31.8197 7.56256C32.0474 5.98624 32.9169 4.31403 34.0689 3.20716C34.1982 3.08294 34.3328 2.96038 34.4731 2.83976C36.7769 0.8581 40.132 -0.00650168 42.9207 1.02163C43.5047 1.23694 43.9447 1.55879 44.2523 2.03938C44.565 2.52789 44.77 3.22599 44.7948 4.24151C44.8442 6.25587 44.1975 7.7506 43.026 8.97313Z" fill="#CFF69B" stroke="black"/>
<path d="M53.2727 23.4542C51.5458 24.0344 49.5359 24.132 47.7346 23.7023C45.9338 23.2728 44.3837 22.3286 43.504 20.865C42.7878 19.6735 43.0906 18.3067 44.0532 17.0457C45.017 15.783 46.5782 14.7313 48.1123 14.2852C48.2886 14.2339 48.4688 14.1867 48.6531 14.1438C51.6964 13.4358 55.1769 14.2308 57.0937 16.4984C57.4736 16.9478 57.685 17.4265 57.7088 17.9849C57.733 18.553 57.5649 19.2512 57.0957 20.1357C56.1567 21.9062 54.8723 22.9167 53.2727 23.4542Z" fill="#CFF69B" stroke="black"/>
<path d="M52.8145 41.5196C51.0101 41.8625 48.9882 41.6802 47.257 40.9981C45.5266 40.3163 44.1282 39.1538 43.4888 37.5657C42.9748 36.2891 43.4795 34.988 44.6117 33.8846C45.7449 32.7801 47.4291 31.9662 48.9996 31.735C49.1827 31.708 49.3691 31.6856 49.559 31.6682C52.705 31.3794 56.0964 32.6674 57.6264 35.224C57.9194 35.7137 58.0474 36.2111 57.982 36.7623C57.9154 37.3234 57.6429 37.9837 57.054 38.7817C55.868 40.3886 54.4586 41.2071 52.8145 41.5196Z" fill="#CFF69B" stroke="black"/>
<path d="M37.4272 56.5952C35.6313 56.0673 33.8893 54.9315 32.6845 53.4823C31.4807 52.0342 30.844 50.315 31.1557 48.5986C31.3948 47.2815 32.4748 46.4127 33.9722 45.9958C35.4692 45.5791 37.2774 45.6538 38.7272 46.1512C38.905 46.2121 39.0835 46.2789 39.2625 46.3518C42.2802 47.5805 44.8025 50.4804 44.6615 53.5147C44.6377 54.0272 44.4804 54.4868 44.1379 54.9127C43.7892 55.3463 43.2288 55.7688 42.3614 56.1638C40.569 56.98 38.9695 57.0486 37.4272 56.5952Z" fill="#CFF69B" stroke="black"/>
</svg>
