<svg width="61" height="60" viewBox="0 0 61 60" fill="none" xmlns="http://www.w3.org/2000/svg">
<path d="M49.7274 53.2576C43.0308 55.077 39.3125 49.772 33.626 45.9089C27.0446 41.4378 19.2024 39.2295 19.4565 31.474C19.7004 24.0301 26.9978 22.117 33.3897 17.9299C39.0582 14.2167 42.7311 9.2925 49.37 10.9356C54.5853 12.2264 57.5969 15.2296 59.302 20.151C60.8425 24.5972 57.8065 27.3956 57.9352 32.0814C58.0466 36.1413 60.3712 38.4011 59.4897 42.3726C58.2703 47.8666 55.3393 51.733 49.7274 53.2576Z" fill="#CFF69B" stroke="black"/>
<path d="M16.6944 51.017C17.9559 49.7568 19.6758 48.7962 21.4632 48.3775C23.2504 47.9588 25.065 48.0895 26.5539 48.95C27.8019 49.6713 28.2025 51.0391 27.9463 52.6213C27.6896 54.207 26.7792 55.8808 25.5904 56.975L25.9292 57.343L25.5904 56.975C25.4583 57.0967 25.3208 57.2166 25.1777 57.3346C22.8318 59.2682 19.4721 60.067 16.6839 59.0226C16.0872 58.7991 15.6412 58.4697 15.3342 57.9821C15.0223 57.4869 14.8239 56.7808 14.8152 55.7538C14.7981 53.7233 15.4809 52.2292 16.6944 51.017Z" fill="#CFF69B" stroke="black"/>
<path d="M6.59615 36.3587C8.34445 35.8062 10.3674 35.7405 12.1727 36.1983C13.9775 36.6559 15.5229 37.6241 16.3882 39.1011C17.0953 40.3079 16.7675 41.677 15.7747 42.9295C14.7805 44.1837 13.1854 45.217 11.628 45.6401C11.4497 45.6885 11.2675 45.7329 11.0813 45.7728C8.00888 46.4317 4.53012 45.5824 2.62995 43.2905C2.25006 42.8323 2.04208 42.3474 2.02571 41.7857C2.00905 41.2142 2.18946 40.5148 2.67828 39.6319C3.65538 37.8672 4.96987 36.8726 6.59615 36.3587Z" fill="#CFF69B" stroke="black"/>
<path d="M7.34418 18.257C9.16789 17.9412 11.2016 18.1548 12.9346 18.8648C14.6669 19.5745 16.0575 20.7608 16.6771 22.3624C17.1759 23.6516 16.6455 24.95 15.4857 26.04C14.3248 27.1312 12.6126 27.9224 11.0247 28.13L11.0877 28.617L11.0247 28.13C10.8398 28.1542 10.6516 28.1738 10.4601 28.1883C7.28637 28.4292 3.89324 27.0872 2.39041 24.5028C2.10181 24.0065 1.98007 23.5048 2.05466 22.9524C2.13059 22.3899 2.41603 21.7311 3.02319 20.9391C4.24534 19.3447 5.68037 18.545 7.34418 18.257Z" fill="#CFF69B" stroke="black"/>
<path d="M23.0734 3.3706C24.8814 3.92333 26.6284 5.09158 27.8246 6.56801C29.0198 8.04317 29.6342 9.78286 29.2826 11.503C29.0145 12.8153 27.9133 13.6669 26.4035 14.0611C24.8945 14.4551 23.0828 14.3549 21.6345 13.8402C21.4557 13.7767 21.2763 13.7073 21.0965 13.6318C18.0572 12.3552 15.5314 9.38355 15.7504 6.33395C15.7868 5.82703 15.9552 5.3727 16.3085 4.95371C16.668 4.52726 17.2382 4.11539 18.1121 3.73535C19.9247 2.94711 21.5324 2.89948 23.0734 3.3706Z" fill="#CFF69B" stroke="black"/>
</svg>
